<mxfile host="app.diagrams.net" modified="2022-11-21T02:11:25.653Z" agent="5.0 (Windows NT 10.0; Win64; x64) AppleWebKit/537.36 (KHTML, like Gecko) Chrome/107.0.0.0 Safari/537.36" etag="MgE1LJojpcmVGJjnN5u3" version="20.5.3" type="github">
  <diagram id="kgpKYQtTHZ0yAKxKKP6v" name="Page-1">
    <mxGraphModel dx="1354" dy="1849" grid="1" gridSize="10" guides="1" tooltips="1" connect="1" arrows="1" fold="1" page="1" pageScale="1" pageWidth="850" pageHeight="1100" math="0" shadow="0">
      <root>
        <mxCell id="0" />
        <mxCell id="1" parent="0" />
        <mxCell id="5WnQGbEfDsJ_Zrcz6-hq-192" value="" style="endArrow=none;dashed=1;html=1;dashPattern=1 3;strokeWidth=2;rounded=0;entryX=0.5;entryY=1;entryDx=0;entryDy=0;startArrow=none;" edge="1" parent="1">
          <mxGeometry width="50" height="50" relative="1" as="geometry">
            <mxPoint x="1527" y="910" as="sourcePoint" />
            <mxPoint x="1527.08" y="840" as="targetPoint" />
          </mxGeometry>
        </mxCell>
        <mxCell id="5WnQGbEfDsJ_Zrcz6-hq-124" value="" style="endArrow=none;dashed=1;html=1;dashPattern=1 3;strokeWidth=2;rounded=0;entryX=0.5;entryY=1;entryDx=0;entryDy=0;startArrow=none;" edge="1" parent="1" target="5WnQGbEfDsJ_Zrcz6-hq-123">
          <mxGeometry width="50" height="50" relative="1" as="geometry">
            <mxPoint x="1523" y="340" as="sourcePoint" />
            <mxPoint x="1520" y="130" as="targetPoint" />
          </mxGeometry>
        </mxCell>
        <mxCell id="5WnQGbEfDsJ_Zrcz6-hq-38" value="" style="endArrow=none;dashed=1;html=1;rounded=0;entryX=0.5;entryY=1;entryDx=0;entryDy=0;" edge="1" parent="1" target="5WnQGbEfDsJ_Zrcz6-hq-37">
          <mxGeometry width="50" height="50" relative="1" as="geometry">
            <mxPoint x="890" y="660" as="sourcePoint" />
            <mxPoint x="890" y="130" as="targetPoint" />
            <Array as="points">
              <mxPoint x="890" y="330" />
            </Array>
          </mxGeometry>
        </mxCell>
        <mxCell id="5WnQGbEfDsJ_Zrcz6-hq-10" value="" style="endArrow=none;dashed=1;html=1;dashPattern=1 3;strokeWidth=2;rounded=0;entryX=0.5;entryY=1;entryDx=0;entryDy=0;startArrow=none;" edge="1" parent="1" target="5WnQGbEfDsJ_Zrcz6-hq-9" source="5WnQGbEfDsJ_Zrcz6-hq-8">
          <mxGeometry width="50" height="50" relative="1" as="geometry">
            <mxPoint x="490" y="360" as="sourcePoint" />
            <mxPoint x="500" y="240" as="targetPoint" />
          </mxGeometry>
        </mxCell>
        <mxCell id="5WnQGbEfDsJ_Zrcz6-hq-7" value="" style="endArrow=none;dashed=1;html=1;dashPattern=1 3;strokeWidth=2;rounded=0;entryX=0.5;entryY=1;entryDx=0;entryDy=0;startArrow=none;" edge="1" parent="1" source="3nuBFxr9cyL0pnOWT2aG-2">
          <mxGeometry width="50" height="50" relative="1" as="geometry">
            <mxPoint x="180" y="360" as="sourcePoint" />
            <mxPoint x="180" y="130" as="targetPoint" />
          </mxGeometry>
        </mxCell>
        <mxCell id="5WnQGbEfDsJ_Zrcz6-hq-9" value="Elevador" style="rounded=0;whiteSpace=wrap;html=1;" vertex="1" parent="1">
          <mxGeometry x="430" y="70" width="120" height="60" as="geometry" />
        </mxCell>
        <mxCell id="3nuBFxr9cyL0pnOWT2aG-2" value="" style="points=[];perimeter=orthogonalPerimeter;rounded=0;shadow=0;strokeWidth=1;" parent="1" vertex="1">
          <mxGeometry x="175" y="150" width="10" height="30" as="geometry" />
        </mxCell>
        <mxCell id="5WnQGbEfDsJ_Zrcz6-hq-11" value="" style="endArrow=none;dashed=1;html=1;dashPattern=1 3;strokeWidth=2;rounded=0;entryX=0.5;entryY=1;entryDx=0;entryDy=0;startArrow=none;" edge="1" parent="1" source="5WnQGbEfDsJ_Zrcz6-hq-131" target="3nuBFxr9cyL0pnOWT2aG-2">
          <mxGeometry width="50" height="50" relative="1" as="geometry">
            <mxPoint x="180" y="660" as="sourcePoint" />
            <mxPoint x="180" y="130" as="targetPoint" />
          </mxGeometry>
        </mxCell>
        <mxCell id="5WnQGbEfDsJ_Zrcz6-hq-12" value="" style="endArrow=classic;html=1;rounded=0;exitX=1.5;exitY=1;exitDx=0;exitDy=0;exitPerimeter=0;entryX=0.1;entryY=0.01;entryDx=0;entryDy=0;entryPerimeter=0;" edge="1" parent="1" source="3nuBFxr9cyL0pnOWT2aG-2" target="5WnQGbEfDsJ_Zrcz6-hq-8">
          <mxGeometry width="50" height="50" relative="1" as="geometry">
            <mxPoint x="200" y="200" as="sourcePoint" />
            <mxPoint x="480" y="180" as="targetPoint" />
          </mxGeometry>
        </mxCell>
        <mxCell id="5WnQGbEfDsJ_Zrcz6-hq-13" value="chamarElevador()" style="edgeLabel;html=1;align=center;verticalAlign=middle;resizable=0;points=[];" vertex="1" connectable="0" parent="5WnQGbEfDsJ_Zrcz6-hq-12">
          <mxGeometry x="-0.6995" y="4" relative="1" as="geometry">
            <mxPoint x="79" as="offset" />
          </mxGeometry>
        </mxCell>
        <mxCell id="5WnQGbEfDsJ_Zrcz6-hq-15" style="edgeStyle=orthogonalEdgeStyle;rounded=0;orthogonalLoop=1;jettySize=auto;html=1;" edge="1" parent="1" source="5WnQGbEfDsJ_Zrcz6-hq-8">
          <mxGeometry relative="1" as="geometry">
            <mxPoint x="500" y="230" as="targetPoint" />
            <Array as="points">
              <mxPoint x="515" y="220" />
              <mxPoint x="515" y="230" />
            </Array>
          </mxGeometry>
        </mxCell>
        <mxCell id="5WnQGbEfDsJ_Zrcz6-hq-8" value="" style="points=[];perimeter=orthogonalPerimeter;rounded=0;shadow=0;strokeWidth=1;" vertex="1" parent="1">
          <mxGeometry x="485" y="180" width="10" height="110" as="geometry" />
        </mxCell>
        <mxCell id="5WnQGbEfDsJ_Zrcz6-hq-14" value="" style="endArrow=none;dashed=1;html=1;dashPattern=1 3;strokeWidth=2;rounded=0;entryX=0.5;entryY=1;entryDx=0;entryDy=0;startArrow=none;" edge="1" parent="1" source="5WnQGbEfDsJ_Zrcz6-hq-24" target="5WnQGbEfDsJ_Zrcz6-hq-8">
          <mxGeometry width="50" height="50" relative="1" as="geometry">
            <mxPoint x="490" y="460" as="sourcePoint" />
            <mxPoint x="490" y="130" as="targetPoint" />
          </mxGeometry>
        </mxCell>
        <mxCell id="5WnQGbEfDsJ_Zrcz6-hq-16" value="verificarAndarVIP()" style="text;html=1;strokeColor=none;fillColor=none;align=center;verticalAlign=middle;whiteSpace=wrap;rounded=0;" vertex="1" parent="1">
          <mxGeometry x="540" y="210" width="60" height="30" as="geometry" />
        </mxCell>
        <mxCell id="5WnQGbEfDsJ_Zrcz6-hq-17" value="[if(verificarAndarVip() == true)]" style="text;html=1;strokeColor=none;fillColor=none;align=center;verticalAlign=middle;whiteSpace=wrap;rounded=0;" vertex="1" parent="1">
          <mxGeometry x="495" y="260" width="165" height="30" as="geometry" />
        </mxCell>
        <mxCell id="5WnQGbEfDsJ_Zrcz6-hq-19" value="Perifericos" style="rounded=0;whiteSpace=wrap;html=1;" vertex="1" parent="1">
          <mxGeometry x="830" y="70" width="120" height="60" as="geometry" />
        </mxCell>
        <mxCell id="5WnQGbEfDsJ_Zrcz6-hq-24" value="" style="points=[];perimeter=orthogonalPerimeter;rounded=0;shadow=0;strokeWidth=1;" vertex="1" parent="1">
          <mxGeometry x="485" y="320" width="10" height="40" as="geometry" />
        </mxCell>
        <mxCell id="5WnQGbEfDsJ_Zrcz6-hq-25" value="" style="endArrow=none;dashed=1;html=1;dashPattern=1 3;strokeWidth=2;rounded=0;entryX=0.5;entryY=1;entryDx=0;entryDy=0;startArrow=none;" edge="1" parent="1" source="5WnQGbEfDsJ_Zrcz6-hq-43" target="5WnQGbEfDsJ_Zrcz6-hq-24">
          <mxGeometry width="50" height="50" relative="1" as="geometry">
            <mxPoint x="490" y="520" as="sourcePoint" />
            <mxPoint x="490" y="240" as="targetPoint" />
          </mxGeometry>
        </mxCell>
        <mxCell id="5WnQGbEfDsJ_Zrcz6-hq-26" value="" style="endArrow=classic;html=1;rounded=0;exitX=1.2;exitY=0.168;exitDx=0;exitDy=0;exitPerimeter=0;" edge="1" parent="1">
          <mxGeometry width="50" height="50" relative="1" as="geometry">
            <mxPoint x="495" y="321.91999999999996" as="sourcePoint" />
            <mxPoint x="880" y="320" as="targetPoint" />
          </mxGeometry>
        </mxCell>
        <mxCell id="5WnQGbEfDsJ_Zrcz6-hq-27" value="&lt;span style=&quot;font-size: 12px; text-align: left; background-color: rgb(248, 249, 250);&quot;&gt;getStatusPerfifericos(eventoCamera)&lt;/span&gt;" style="edgeLabel;html=1;align=center;verticalAlign=middle;resizable=0;points=[];" vertex="1" connectable="0" parent="5WnQGbEfDsJ_Zrcz6-hq-26">
          <mxGeometry x="-0.6995" y="4" relative="1" as="geometry">
            <mxPoint x="126" y="2" as="offset" />
          </mxGeometry>
        </mxCell>
        <mxCell id="5WnQGbEfDsJ_Zrcz6-hq-32" value="" style="endArrow=classic;html=1;rounded=0;exitX=-0.2;exitY=0.02;exitDx=0;exitDy=0;exitPerimeter=0;entryX=1;entryY=0.013;entryDx=0;entryDy=0;entryPerimeter=0;" edge="1" parent="1" source="5WnQGbEfDsJ_Zrcz6-hq-37" target="5WnQGbEfDsJ_Zrcz6-hq-43">
          <mxGeometry width="50" height="50" relative="1" as="geometry">
            <mxPoint x="700" y="410" as="sourcePoint" />
            <mxPoint x="490" y="401" as="targetPoint" />
          </mxGeometry>
        </mxCell>
        <mxCell id="5WnQGbEfDsJ_Zrcz6-hq-33" value="&lt;span style=&quot;font-size: 12px; text-align: left; background-color: rgb(248, 249, 250);&quot;&gt;chamaReconhecimentoFacialVIP()&lt;/span&gt;" style="edgeLabel;html=1;align=center;verticalAlign=middle;resizable=0;points=[];" vertex="1" connectable="0" parent="5WnQGbEfDsJ_Zrcz6-hq-32">
          <mxGeometry x="-0.6995" y="4" relative="1" as="geometry">
            <mxPoint x="-144" y="-4" as="offset" />
          </mxGeometry>
        </mxCell>
        <mxCell id="5WnQGbEfDsJ_Zrcz6-hq-34" value="[if(&lt;span style=&quot;text-align: left;&quot;&gt;chamaReconhecimentoFacialVIP()&lt;/span&gt;&amp;nbsp;== true)]" style="text;html=1;strokeColor=none;fillColor=none;align=center;verticalAlign=middle;whiteSpace=wrap;rounded=0;" vertex="1" parent="1">
          <mxGeometry x="500" y="430" width="290" height="30" as="geometry" />
        </mxCell>
        <mxCell id="5WnQGbEfDsJ_Zrcz6-hq-36" value="" style="endArrow=none;dashed=1;html=1;rounded=0;entryX=0.5;entryY=1;entryDx=0;entryDy=0;startArrow=none;" edge="1" parent="1" source="5WnQGbEfDsJ_Zrcz6-hq-37" target="5WnQGbEfDsJ_Zrcz6-hq-19">
          <mxGeometry width="50" height="50" relative="1" as="geometry">
            <mxPoint x="890" y="520" as="sourcePoint" />
            <mxPoint x="920" y="230" as="targetPoint" />
            <Array as="points" />
          </mxGeometry>
        </mxCell>
        <mxCell id="5WnQGbEfDsJ_Zrcz6-hq-37" value="" style="points=[];perimeter=orthogonalPerimeter;rounded=0;shadow=0;strokeWidth=1;" vertex="1" parent="1">
          <mxGeometry x="885" y="400" width="10" height="30" as="geometry" />
        </mxCell>
        <mxCell id="5WnQGbEfDsJ_Zrcz6-hq-42" value="" style="points=[];perimeter=orthogonalPerimeter;rounded=0;shadow=0;strokeWidth=1;" vertex="1" parent="1">
          <mxGeometry x="885" y="320" width="10" height="20" as="geometry" />
        </mxCell>
        <mxCell id="5WnQGbEfDsJ_Zrcz6-hq-43" value="" style="points=[];perimeter=orthogonalPerimeter;rounded=0;shadow=0;strokeWidth=1;" vertex="1" parent="1">
          <mxGeometry x="485" y="400" width="10" height="150" as="geometry" />
        </mxCell>
        <mxCell id="5WnQGbEfDsJ_Zrcz6-hq-44" value="" style="endArrow=none;dashed=1;html=1;dashPattern=1 3;strokeWidth=2;rounded=0;entryX=0.5;entryY=1;entryDx=0;entryDy=0;" edge="1" parent="1" target="5WnQGbEfDsJ_Zrcz6-hq-43">
          <mxGeometry width="50" height="50" relative="1" as="geometry">
            <mxPoint x="490" y="660" as="sourcePoint" />
            <mxPoint x="490" y="360" as="targetPoint" />
          </mxGeometry>
        </mxCell>
        <mxCell id="5WnQGbEfDsJ_Zrcz6-hq-45" value="direcionarAndar(andarDestino)" style="text;html=1;align=center;verticalAlign=middle;resizable=0;points=[];autosize=1;strokeColor=none;fillColor=none;" vertex="1" parent="1">
          <mxGeometry x="520" y="470" width="190" height="30" as="geometry" />
        </mxCell>
        <mxCell id="5WnQGbEfDsJ_Zrcz6-hq-47" value="[else]" style="text;html=1;strokeColor=none;fillColor=none;align=center;verticalAlign=middle;whiteSpace=wrap;rounded=0;" vertex="1" parent="1">
          <mxGeometry x="500" y="510" width="70" height="30" as="geometry" />
        </mxCell>
        <mxCell id="5WnQGbEfDsJ_Zrcz6-hq-48" value="return &quot;andar somente para vip&#39;s" style="text;html=1;align=center;verticalAlign=middle;resizable=0;points=[];autosize=1;strokeColor=none;fillColor=none;" vertex="1" parent="1">
          <mxGeometry x="530" y="535" width="200" height="30" as="geometry" />
        </mxCell>
        <mxCell id="5WnQGbEfDsJ_Zrcz6-hq-49" value="" style="endArrow=classic;html=1;rounded=0;" edge="1" parent="1">
          <mxGeometry width="50" height="50" relative="1" as="geometry">
            <mxPoint x="490" y="550" as="sourcePoint" />
            <mxPoint x="190" y="550" as="targetPoint" />
          </mxGeometry>
        </mxCell>
        <mxCell id="5WnQGbEfDsJ_Zrcz6-hq-50" value="[else]" style="text;html=1;strokeColor=none;fillColor=none;align=center;verticalAlign=middle;whiteSpace=wrap;rounded=0;" vertex="1" parent="1">
          <mxGeometry x="492.5" y="590" width="45" height="30" as="geometry" />
        </mxCell>
        <mxCell id="5WnQGbEfDsJ_Zrcz6-hq-51" value="direiconarAndar(andarDestino)" style="text;html=1;align=center;verticalAlign=middle;resizable=0;points=[];autosize=1;strokeColor=none;fillColor=none;" vertex="1" parent="1">
          <mxGeometry x="510" y="610" width="190" height="30" as="geometry" />
        </mxCell>
        <mxCell id="5WnQGbEfDsJ_Zrcz6-hq-58" style="edgeStyle=orthogonalEdgeStyle;rounded=0;orthogonalLoop=1;jettySize=auto;html=1;" edge="1" parent="1">
          <mxGeometry relative="1" as="geometry">
            <mxPoint x="505" y="490" as="targetPoint" />
            <mxPoint x="500" y="480" as="sourcePoint" />
            <Array as="points">
              <mxPoint x="520" y="480" />
              <mxPoint x="520" y="490" />
            </Array>
          </mxGeometry>
        </mxCell>
        <mxCell id="5WnQGbEfDsJ_Zrcz6-hq-59" value="" style="endArrow=classic;html=1;rounded=0;" edge="1" parent="1">
          <mxGeometry width="50" height="50" relative="1" as="geometry">
            <mxPoint x="485" y="630" as="sourcePoint" />
            <mxPoint x="190" y="630" as="targetPoint" />
          </mxGeometry>
        </mxCell>
        <mxCell id="5WnQGbEfDsJ_Zrcz6-hq-61" value="" style="points=[];perimeter=orthogonalPerimeter;rounded=0;shadow=0;strokeWidth=1;" vertex="1" parent="1">
          <mxGeometry x="485" y="630" width="10" height="10" as="geometry" />
        </mxCell>
        <mxCell id="5WnQGbEfDsJ_Zrcz6-hq-62" value="" style="points=[];perimeter=orthogonalPerimeter;rounded=0;shadow=0;strokeWidth=1;" vertex="1" parent="1">
          <mxGeometry x="175" y="550" width="10" height="30" as="geometry" />
        </mxCell>
        <mxCell id="5WnQGbEfDsJ_Zrcz6-hq-63" value="" style="endArrow=none;dashed=1;html=1;dashPattern=1 3;strokeWidth=2;rounded=0;entryX=0.5;entryY=1;entryDx=0;entryDy=0;startArrow=none;" edge="1" parent="1" source="5WnQGbEfDsJ_Zrcz6-hq-64" target="5WnQGbEfDsJ_Zrcz6-hq-62">
          <mxGeometry width="50" height="50" relative="1" as="geometry">
            <mxPoint x="180" y="660" as="sourcePoint" />
            <mxPoint x="180" y="180" as="targetPoint" />
          </mxGeometry>
        </mxCell>
        <mxCell id="5WnQGbEfDsJ_Zrcz6-hq-64" value="" style="points=[];perimeter=orthogonalPerimeter;rounded=0;shadow=0;strokeWidth=1;" vertex="1" parent="1">
          <mxGeometry x="175" y="620" width="10" height="30" as="geometry" />
        </mxCell>
        <mxCell id="5WnQGbEfDsJ_Zrcz6-hq-65" value="" style="endArrow=none;dashed=1;html=1;dashPattern=1 3;strokeWidth=2;rounded=0;entryX=0.5;entryY=1;entryDx=0;entryDy=0;" edge="1" parent="1" target="5WnQGbEfDsJ_Zrcz6-hq-64">
          <mxGeometry width="50" height="50" relative="1" as="geometry">
            <mxPoint x="180" y="660" as="sourcePoint" />
            <mxPoint x="180" y="580" as="targetPoint" />
          </mxGeometry>
        </mxCell>
        <mxCell id="5WnQGbEfDsJ_Zrcz6-hq-67" value="" style="endArrow=none;dashed=1;html=1;dashPattern=1 3;strokeWidth=2;rounded=0;entryX=0.5;entryY=1;entryDx=0;entryDy=0;startArrow=none;" edge="1" parent="1" source="5WnQGbEfDsJ_Zrcz6-hq-123" target="5WnQGbEfDsJ_Zrcz6-hq-70">
          <mxGeometry width="50" height="50" relative="1" as="geometry">
            <mxPoint x="1520.5" y="670" as="sourcePoint" />
            <mxPoint x="1530" y="240" as="targetPoint" />
          </mxGeometry>
        </mxCell>
        <mxCell id="5WnQGbEfDsJ_Zrcz6-hq-68" value="" style="endArrow=none;dashed=1;html=1;dashPattern=1 3;strokeWidth=2;rounded=0;entryX=0.5;entryY=1;entryDx=0;entryDy=0;startArrow=none;" edge="1" parent="1" source="5WnQGbEfDsJ_Zrcz6-hq-71">
          <mxGeometry width="50" height="50" relative="1" as="geometry">
            <mxPoint x="1210" y="360" as="sourcePoint" />
            <mxPoint x="1210" y="130" as="targetPoint" />
          </mxGeometry>
        </mxCell>
        <mxCell id="5WnQGbEfDsJ_Zrcz6-hq-70" value="Usuario" style="rounded=0;whiteSpace=wrap;html=1;" vertex="1" parent="1">
          <mxGeometry x="1460" y="70" width="120" height="60" as="geometry" />
        </mxCell>
        <mxCell id="5WnQGbEfDsJ_Zrcz6-hq-71" value="" style="points=[];perimeter=orthogonalPerimeter;rounded=0;shadow=0;strokeWidth=1;" vertex="1" parent="1">
          <mxGeometry x="1205" y="160" width="10" height="30" as="geometry" />
        </mxCell>
        <mxCell id="5WnQGbEfDsJ_Zrcz6-hq-72" value="" style="endArrow=none;dashed=1;html=1;dashPattern=1 3;strokeWidth=2;rounded=0;entryX=0.5;entryY=1;entryDx=0;entryDy=0;startArrow=none;" edge="1" parent="1" target="5WnQGbEfDsJ_Zrcz6-hq-71">
          <mxGeometry width="50" height="50" relative="1" as="geometry">
            <mxPoint x="1210" y="340" as="sourcePoint" />
            <mxPoint x="1210" y="130" as="targetPoint" />
          </mxGeometry>
        </mxCell>
        <mxCell id="5WnQGbEfDsJ_Zrcz6-hq-77" value="" style="endArrow=none;dashed=1;html=1;dashPattern=1 3;strokeWidth=2;rounded=0;entryX=0.5;entryY=1;entryDx=0;entryDy=0;startArrow=none;" edge="1" parent="1">
          <mxGeometry width="50" height="50" relative="1" as="geometry">
            <mxPoint x="1520.5" y="400" as="sourcePoint" />
            <mxPoint x="1520" y="400" as="targetPoint" />
          </mxGeometry>
        </mxCell>
        <mxCell id="5WnQGbEfDsJ_Zrcz6-hq-123" value="" style="points=[];perimeter=orthogonalPerimeter;rounded=0;shadow=0;strokeWidth=1;" vertex="1" parent="1">
          <mxGeometry x="1517.5" y="160" width="10" height="170" as="geometry" />
        </mxCell>
        <mxCell id="5WnQGbEfDsJ_Zrcz6-hq-125" value="[if (statusAutenticacao == true)]" style="text;html=1;strokeColor=none;fillColor=none;align=center;verticalAlign=middle;whiteSpace=wrap;rounded=0;" vertex="1" parent="1">
          <mxGeometry x="1530" y="170" width="170" height="30" as="geometry" />
        </mxCell>
        <mxCell id="5WnQGbEfDsJ_Zrcz6-hq-129" value="Passageiro" style="shape=umlActor;verticalLabelPosition=bottom;verticalAlign=top;html=1;outlineConnect=0;" vertex="1" parent="1">
          <mxGeometry x="165" y="50" width="30" height="60" as="geometry" />
        </mxCell>
        <mxCell id="5WnQGbEfDsJ_Zrcz6-hq-130" value="" style="endArrow=classic;html=1;rounded=0;" edge="1" parent="1">
          <mxGeometry width="50" height="50" relative="1" as="geometry">
            <mxPoint x="485" y="510" as="sourcePoint" />
            <mxPoint x="185" y="510" as="targetPoint" />
          </mxGeometry>
        </mxCell>
        <mxCell id="5WnQGbEfDsJ_Zrcz6-hq-131" value="" style="points=[];perimeter=orthogonalPerimeter;rounded=0;shadow=0;strokeWidth=1;" vertex="1" parent="1">
          <mxGeometry x="175" y="510" width="10" height="30" as="geometry" />
        </mxCell>
        <mxCell id="5WnQGbEfDsJ_Zrcz6-hq-132" value="" style="endArrow=none;dashed=1;html=1;dashPattern=1 3;strokeWidth=2;rounded=0;entryX=0.5;entryY=1;entryDx=0;entryDy=0;startArrow=none;" edge="1" parent="1" source="5WnQGbEfDsJ_Zrcz6-hq-62" target="5WnQGbEfDsJ_Zrcz6-hq-131">
          <mxGeometry width="50" height="50" relative="1" as="geometry">
            <mxPoint x="180" y="550" as="sourcePoint" />
            <mxPoint x="180" y="180" as="targetPoint" />
          </mxGeometry>
        </mxCell>
        <mxCell id="5WnQGbEfDsJ_Zrcz6-hq-133" value="&lt;font style=&quot;font-size: 18px;&quot;&gt;Seleciona Andar&lt;/font&gt;" style="text;html=1;align=center;verticalAlign=middle;resizable=0;points=[];autosize=1;strokeColor=none;fillColor=none;" vertex="1" parent="1">
          <mxGeometry x="420" y="-20" width="150" height="40" as="geometry" />
        </mxCell>
        <mxCell id="5WnQGbEfDsJ_Zrcz6-hq-134" value="Acessar sistema" style="text;html=1;resizable=0;autosize=1;align=center;verticalAlign=middle;points=[];fillColor=none;strokeColor=none;rounded=0;fontSize=18;" vertex="1" parent="1">
          <mxGeometry x="1290" y="-20" width="160" height="40" as="geometry" />
        </mxCell>
        <mxCell id="5WnQGbEfDsJ_Zrcz6-hq-135" value="Master" style="shape=umlActor;verticalLabelPosition=bottom;verticalAlign=top;html=1;outlineConnect=0;fontSize=18;" vertex="1" parent="1">
          <mxGeometry x="1195" y="40" width="30" height="60" as="geometry" />
        </mxCell>
        <mxCell id="5WnQGbEfDsJ_Zrcz6-hq-136" value="" style="endArrow=classic;html=1;rounded=0;fontSize=18;exitX=1;exitY=0.067;exitDx=0;exitDy=0;exitPerimeter=0;entryX=0.05;entryY=0.017;entryDx=0;entryDy=0;entryPerimeter=0;" edge="1" parent="1" source="5WnQGbEfDsJ_Zrcz6-hq-71" target="5WnQGbEfDsJ_Zrcz6-hq-123">
          <mxGeometry width="50" height="50" relative="1" as="geometry">
            <mxPoint x="1250" y="230" as="sourcePoint" />
            <mxPoint x="1440" y="210" as="targetPoint" />
          </mxGeometry>
        </mxCell>
        <mxCell id="5WnQGbEfDsJ_Zrcz6-hq-137" value="&lt;span style=&quot;font-size: 11px;&quot;&gt;autenticacao(login, senha)&lt;/span&gt;" style="edgeLabel;html=1;align=center;verticalAlign=middle;resizable=0;points=[];fontSize=18;" vertex="1" connectable="0" parent="5WnQGbEfDsJ_Zrcz6-hq-136">
          <mxGeometry x="0.2937" y="-1" relative="1" as="geometry">
            <mxPoint x="-51" y="2" as="offset" />
          </mxGeometry>
        </mxCell>
        <mxCell id="5WnQGbEfDsJ_Zrcz6-hq-138" value="&lt;font style=&quot;font-size: 12px;&quot;&gt;return &quot;usuario logado com sucesso&quot;&lt;/font&gt;" style="text;html=1;align=center;verticalAlign=middle;resizable=0;points=[];autosize=1;strokeColor=none;fillColor=none;fontSize=18;" vertex="1" parent="1">
          <mxGeometry x="1527.5" y="190" width="220" height="40" as="geometry" />
        </mxCell>
        <mxCell id="5WnQGbEfDsJ_Zrcz6-hq-139" value="" style="endArrow=classic;html=1;rounded=0;fontSize=12;exitX=-0.15;exitY=0.329;exitDx=0;exitDy=0;exitPerimeter=0;entryX=1.167;entryY=0.25;entryDx=0;entryDy=0;entryPerimeter=0;" edge="1" parent="1" source="5WnQGbEfDsJ_Zrcz6-hq-123" target="5WnQGbEfDsJ_Zrcz6-hq-167">
          <mxGeometry width="50" height="50" relative="1" as="geometry">
            <mxPoint x="1380" y="280" as="sourcePoint" />
            <mxPoint x="1210" y="216" as="targetPoint" />
          </mxGeometry>
        </mxCell>
        <mxCell id="5WnQGbEfDsJ_Zrcz6-hq-140" value="[else]" style="text;html=1;strokeColor=none;fillColor=none;align=center;verticalAlign=middle;whiteSpace=wrap;rounded=0;" vertex="1" parent="1">
          <mxGeometry x="1527.5" y="280" width="40" height="30" as="geometry" />
        </mxCell>
        <mxCell id="5WnQGbEfDsJ_Zrcz6-hq-141" value="&lt;font style=&quot;font-size: 12px;&quot;&gt;return &quot;usuario incorreto&quot;&lt;/font&gt;" style="text;html=1;align=center;verticalAlign=middle;resizable=0;points=[];autosize=1;strokeColor=none;fillColor=none;fontSize=18;" vertex="1" parent="1">
          <mxGeometry x="1540" y="290" width="160" height="40" as="geometry" />
        </mxCell>
        <mxCell id="5WnQGbEfDsJ_Zrcz6-hq-142" value="" style="endArrow=classic;html=1;rounded=0;fontSize=12;exitX=-0.15;exitY=0.329;exitDx=0;exitDy=0;exitPerimeter=0;entryX=1.083;entryY=0.083;entryDx=0;entryDy=0;entryPerimeter=0;" edge="1" parent="1" target="5WnQGbEfDsJ_Zrcz6-hq-168">
          <mxGeometry width="50" height="50" relative="1" as="geometry">
            <mxPoint x="1517.5" y="320.00000000000006" as="sourcePoint" />
            <mxPoint x="1211.5" y="321.04" as="targetPoint" />
          </mxGeometry>
        </mxCell>
        <mxCell id="5WnQGbEfDsJ_Zrcz6-hq-144" value="" style="endArrow=none;dashed=1;html=1;dashPattern=1 3;strokeWidth=2;rounded=0;entryX=0.5;entryY=1;entryDx=0;entryDy=0;startArrow=none;" edge="1" parent="1" target="5WnQGbEfDsJ_Zrcz6-hq-151">
          <mxGeometry width="50" height="50" relative="1" as="geometry">
            <mxPoint x="2138" y="370" as="sourcePoint" />
            <mxPoint x="2135" y="155" as="targetPoint" />
          </mxGeometry>
        </mxCell>
        <mxCell id="5WnQGbEfDsJ_Zrcz6-hq-145" value="" style="endArrow=none;dashed=1;html=1;dashPattern=1 3;strokeWidth=2;rounded=0;entryX=0.5;entryY=1;entryDx=0;entryDy=0;startArrow=none;" edge="1" parent="1" source="5WnQGbEfDsJ_Zrcz6-hq-151" target="5WnQGbEfDsJ_Zrcz6-hq-147">
          <mxGeometry width="50" height="50" relative="1" as="geometry">
            <mxPoint x="2135.5" y="695" as="sourcePoint" />
            <mxPoint x="2145" y="265" as="targetPoint" />
          </mxGeometry>
        </mxCell>
        <mxCell id="5WnQGbEfDsJ_Zrcz6-hq-146" value="" style="endArrow=none;dashed=1;html=1;dashPattern=1 3;strokeWidth=2;rounded=0;entryX=0.5;entryY=1;entryDx=0;entryDy=0;startArrow=none;" edge="1" parent="1" source="5WnQGbEfDsJ_Zrcz6-hq-148">
          <mxGeometry width="50" height="50" relative="1" as="geometry">
            <mxPoint x="1825" y="385" as="sourcePoint" />
            <mxPoint x="1825" y="155" as="targetPoint" />
          </mxGeometry>
        </mxCell>
        <mxCell id="5WnQGbEfDsJ_Zrcz6-hq-147" value="Usuario" style="rounded=0;whiteSpace=wrap;html=1;" vertex="1" parent="1">
          <mxGeometry x="2075" y="95" width="120" height="60" as="geometry" />
        </mxCell>
        <mxCell id="5WnQGbEfDsJ_Zrcz6-hq-148" value="" style="points=[];perimeter=orthogonalPerimeter;rounded=0;shadow=0;strokeWidth=1;" vertex="1" parent="1">
          <mxGeometry x="1820" y="185" width="10" height="30" as="geometry" />
        </mxCell>
        <mxCell id="5WnQGbEfDsJ_Zrcz6-hq-149" value="" style="endArrow=none;dashed=1;html=1;dashPattern=1 3;strokeWidth=2;rounded=0;entryX=0.5;entryY=1;entryDx=0;entryDy=0;startArrow=none;" edge="1" parent="1" target="5WnQGbEfDsJ_Zrcz6-hq-148" source="5WnQGbEfDsJ_Zrcz6-hq-162">
          <mxGeometry width="50" height="50" relative="1" as="geometry">
            <mxPoint x="1825" y="465" as="sourcePoint" />
            <mxPoint x="1825" y="155" as="targetPoint" />
          </mxGeometry>
        </mxCell>
        <mxCell id="5WnQGbEfDsJ_Zrcz6-hq-150" value="" style="endArrow=none;dashed=1;html=1;dashPattern=1 3;strokeWidth=2;rounded=0;entryX=0.5;entryY=1;entryDx=0;entryDy=0;startArrow=none;" edge="1" parent="1">
          <mxGeometry width="50" height="50" relative="1" as="geometry">
            <mxPoint x="2135.5" y="425" as="sourcePoint" />
            <mxPoint x="2135" y="425" as="targetPoint" />
          </mxGeometry>
        </mxCell>
        <mxCell id="5WnQGbEfDsJ_Zrcz6-hq-151" value="" style="points=[];perimeter=orthogonalPerimeter;rounded=0;shadow=0;strokeWidth=1;" vertex="1" parent="1">
          <mxGeometry x="2132.5" y="185" width="10" height="165" as="geometry" />
        </mxCell>
        <mxCell id="5WnQGbEfDsJ_Zrcz6-hq-152" value="[if (statusAutenticacao == true)]" style="text;html=1;strokeColor=none;fillColor=none;align=center;verticalAlign=middle;whiteSpace=wrap;rounded=0;" vertex="1" parent="1">
          <mxGeometry x="2145" y="195" width="170" height="30" as="geometry" />
        </mxCell>
        <mxCell id="5WnQGbEfDsJ_Zrcz6-hq-153" value="Acessar sistema" style="text;html=1;resizable=0;autosize=1;align=center;verticalAlign=middle;points=[];fillColor=none;strokeColor=none;rounded=0;fontSize=18;" vertex="1" parent="1">
          <mxGeometry x="1910" y="-10" width="160" height="40" as="geometry" />
        </mxCell>
        <mxCell id="5WnQGbEfDsJ_Zrcz6-hq-154" value="Controlador" style="shape=umlActor;verticalLabelPosition=bottom;verticalAlign=top;html=1;outlineConnect=0;fontSize=18;" vertex="1" parent="1">
          <mxGeometry x="1810" y="65" width="30" height="60" as="geometry" />
        </mxCell>
        <mxCell id="5WnQGbEfDsJ_Zrcz6-hq-155" value="" style="endArrow=classic;html=1;rounded=0;fontSize=18;exitX=1;exitY=0.067;exitDx=0;exitDy=0;exitPerimeter=0;entryX=0.05;entryY=0.017;entryDx=0;entryDy=0;entryPerimeter=0;" edge="1" parent="1" source="5WnQGbEfDsJ_Zrcz6-hq-148" target="5WnQGbEfDsJ_Zrcz6-hq-151">
          <mxGeometry width="50" height="50" relative="1" as="geometry">
            <mxPoint x="1865" y="255" as="sourcePoint" />
            <mxPoint x="2055" y="235" as="targetPoint" />
          </mxGeometry>
        </mxCell>
        <mxCell id="5WnQGbEfDsJ_Zrcz6-hq-156" value="&lt;span style=&quot;font-size: 11px;&quot;&gt;autenticacao(login, senha)&lt;/span&gt;" style="edgeLabel;html=1;align=center;verticalAlign=middle;resizable=0;points=[];fontSize=18;" vertex="1" connectable="0" parent="5WnQGbEfDsJ_Zrcz6-hq-155">
          <mxGeometry x="0.2937" y="-1" relative="1" as="geometry">
            <mxPoint x="-51" y="2" as="offset" />
          </mxGeometry>
        </mxCell>
        <mxCell id="5WnQGbEfDsJ_Zrcz6-hq-157" value="&lt;font style=&quot;font-size: 12px;&quot;&gt;return &quot;usuario logado com sucesso&quot;&lt;/font&gt;" style="text;html=1;align=center;verticalAlign=middle;resizable=0;points=[];autosize=1;strokeColor=none;fillColor=none;fontSize=18;" vertex="1" parent="1">
          <mxGeometry x="2142.5" y="215" width="220" height="40" as="geometry" />
        </mxCell>
        <mxCell id="5WnQGbEfDsJ_Zrcz6-hq-158" value="" style="endArrow=classic;html=1;rounded=0;fontSize=12;exitX=-0.15;exitY=0.329;exitDx=0;exitDy=0;exitPerimeter=0;entryX=1.1;entryY=0.033;entryDx=0;entryDy=0;entryPerimeter=0;" edge="1" parent="1" source="5WnQGbEfDsJ_Zrcz6-hq-151" target="5WnQGbEfDsJ_Zrcz6-hq-162">
          <mxGeometry width="50" height="50" relative="1" as="geometry">
            <mxPoint x="1995" y="305" as="sourcePoint" />
            <mxPoint x="1825" y="241" as="targetPoint" />
          </mxGeometry>
        </mxCell>
        <mxCell id="5WnQGbEfDsJ_Zrcz6-hq-159" value="[else]" style="text;html=1;strokeColor=none;fillColor=none;align=center;verticalAlign=middle;whiteSpace=wrap;rounded=0;" vertex="1" parent="1">
          <mxGeometry x="2142.5" y="305" width="40" height="30" as="geometry" />
        </mxCell>
        <mxCell id="5WnQGbEfDsJ_Zrcz6-hq-160" value="&lt;font style=&quot;font-size: 12px;&quot;&gt;return &quot;usuario incorreto&quot;&lt;/font&gt;" style="text;html=1;align=center;verticalAlign=middle;resizable=0;points=[];autosize=1;strokeColor=none;fillColor=none;fontSize=18;" vertex="1" parent="1">
          <mxGeometry x="2155" y="315" width="160" height="40" as="geometry" />
        </mxCell>
        <mxCell id="5WnQGbEfDsJ_Zrcz6-hq-161" value="" style="endArrow=classic;html=1;rounded=0;fontSize=12;exitX=-0.15;exitY=0.329;exitDx=0;exitDy=0;exitPerimeter=0;entryX=1.171;entryY=0.314;entryDx=0;entryDy=0;entryPerimeter=0;" edge="1" parent="1" target="5WnQGbEfDsJ_Zrcz6-hq-165">
          <mxGeometry width="50" height="50" relative="1" as="geometry">
            <mxPoint x="2132.5" y="345" as="sourcePoint" />
            <mxPoint x="1826.5" y="346.03999999999996" as="targetPoint" />
          </mxGeometry>
        </mxCell>
        <mxCell id="5WnQGbEfDsJ_Zrcz6-hq-162" value="" style="points=[];perimeter=orthogonalPerimeter;rounded=0;shadow=0;strokeWidth=1;" vertex="1" parent="1">
          <mxGeometry x="1820" y="240" width="10" height="10" as="geometry" />
        </mxCell>
        <mxCell id="5WnQGbEfDsJ_Zrcz6-hq-164" value="" style="endArrow=none;dashed=1;html=1;dashPattern=1 3;strokeWidth=2;rounded=0;entryX=0.5;entryY=1;entryDx=0;entryDy=0;startArrow=none;" edge="1" parent="1" source="5WnQGbEfDsJ_Zrcz6-hq-165" target="5WnQGbEfDsJ_Zrcz6-hq-162">
          <mxGeometry width="50" height="50" relative="1" as="geometry">
            <mxPoint x="1825" y="360" as="sourcePoint" />
            <mxPoint x="1825" y="215" as="targetPoint" />
          </mxGeometry>
        </mxCell>
        <mxCell id="5WnQGbEfDsJ_Zrcz6-hq-167" value="" style="points=[];perimeter=orthogonalPerimeter;rounded=0;shadow=0;strokeWidth=1;" vertex="1" parent="1">
          <mxGeometry x="1205" y="215" width="10" height="10" as="geometry" />
        </mxCell>
        <mxCell id="5WnQGbEfDsJ_Zrcz6-hq-168" value="" style="points=[];perimeter=orthogonalPerimeter;rounded=0;shadow=0;strokeWidth=1;" vertex="1" parent="1">
          <mxGeometry x="1205" y="320" width="10" height="10" as="geometry" />
        </mxCell>
        <mxCell id="5WnQGbEfDsJ_Zrcz6-hq-169" value="" style="endArrow=none;dashed=1;html=1;dashPattern=1 3;strokeWidth=2;rounded=0;entryX=0.5;entryY=1;entryDx=0;entryDy=0;startArrow=none;" edge="1" parent="1" target="5WnQGbEfDsJ_Zrcz6-hq-176">
          <mxGeometry width="50" height="50" relative="1" as="geometry">
            <mxPoint x="1527.5" y="760" as="sourcePoint" />
            <mxPoint x="1525" y="630" as="targetPoint" />
          </mxGeometry>
        </mxCell>
        <mxCell id="5WnQGbEfDsJ_Zrcz6-hq-170" value="" style="endArrow=none;dashed=1;html=1;dashPattern=1 3;strokeWidth=2;rounded=0;entryX=0.5;entryY=1;entryDx=0;entryDy=0;startArrow=none;" edge="1" parent="1" source="5WnQGbEfDsJ_Zrcz6-hq-176" target="5WnQGbEfDsJ_Zrcz6-hq-172">
          <mxGeometry width="50" height="50" relative="1" as="geometry">
            <mxPoint x="1525.5" y="1170" as="sourcePoint" />
            <mxPoint x="1535" y="740" as="targetPoint" />
          </mxGeometry>
        </mxCell>
        <mxCell id="5WnQGbEfDsJ_Zrcz6-hq-171" value="" style="endArrow=none;dashed=1;html=1;dashPattern=1 3;strokeWidth=2;rounded=0;entryX=0.5;entryY=1;entryDx=0;entryDy=0;startArrow=none;" edge="1" parent="1" source="5WnQGbEfDsJ_Zrcz6-hq-173">
          <mxGeometry width="50" height="50" relative="1" as="geometry">
            <mxPoint x="1215" y="860" as="sourcePoint" />
            <mxPoint x="1215" y="630" as="targetPoint" />
          </mxGeometry>
        </mxCell>
        <mxCell id="5WnQGbEfDsJ_Zrcz6-hq-172" value="ControleMaster" style="rounded=0;whiteSpace=wrap;html=1;" vertex="1" parent="1">
          <mxGeometry x="1465" y="570" width="120" height="60" as="geometry" />
        </mxCell>
        <mxCell id="5WnQGbEfDsJ_Zrcz6-hq-173" value="" style="points=[];perimeter=orthogonalPerimeter;rounded=0;shadow=0;strokeWidth=1;" vertex="1" parent="1">
          <mxGeometry x="1210" y="660" width="10" height="30" as="geometry" />
        </mxCell>
        <mxCell id="5WnQGbEfDsJ_Zrcz6-hq-174" value="" style="endArrow=none;dashed=1;html=1;dashPattern=1 3;strokeWidth=2;rounded=0;entryX=0.5;entryY=1;entryDx=0;entryDy=0;startArrow=none;" edge="1" parent="1" target="5WnQGbEfDsJ_Zrcz6-hq-173" source="5WnQGbEfDsJ_Zrcz6-hq-197">
          <mxGeometry width="50" height="50" relative="1" as="geometry">
            <mxPoint x="1215" y="940" as="sourcePoint" />
            <mxPoint x="1215" y="630" as="targetPoint" />
          </mxGeometry>
        </mxCell>
        <mxCell id="5WnQGbEfDsJ_Zrcz6-hq-175" value="" style="endArrow=none;dashed=1;html=1;dashPattern=1 3;strokeWidth=2;rounded=0;entryX=0.5;entryY=1;entryDx=0;entryDy=0;startArrow=none;" edge="1" parent="1">
          <mxGeometry width="50" height="50" relative="1" as="geometry">
            <mxPoint x="1525.5" y="900" as="sourcePoint" />
            <mxPoint x="1525" y="900" as="targetPoint" />
          </mxGeometry>
        </mxCell>
        <mxCell id="5WnQGbEfDsJ_Zrcz6-hq-227" style="edgeStyle=orthogonalEdgeStyle;rounded=0;orthogonalLoop=1;jettySize=auto;html=1;fontSize=12;exitX=1.067;exitY=0.407;exitDx=0;exitDy=0;exitPerimeter=0;" edge="1" parent="1" source="5WnQGbEfDsJ_Zrcz6-hq-176">
          <mxGeometry relative="1" as="geometry">
            <mxPoint x="1529" y="760" as="targetPoint" />
            <Array as="points">
              <mxPoint x="1536" y="733" />
              <mxPoint x="1555" y="733" />
              <mxPoint x="1555" y="760" />
            </Array>
          </mxGeometry>
        </mxCell>
        <mxCell id="5WnQGbEfDsJ_Zrcz6-hq-176" value="" style="points=[];perimeter=orthogonalPerimeter;rounded=0;shadow=0;strokeWidth=1;" vertex="1" parent="1">
          <mxGeometry x="1522.5" y="660" width="12.5" height="220" as="geometry" />
        </mxCell>
        <mxCell id="5WnQGbEfDsJ_Zrcz6-hq-178" value="Gerencia autorizações" style="text;html=1;resizable=0;autosize=1;align=center;verticalAlign=middle;points=[];fillColor=none;strokeColor=none;rounded=0;fontSize=18;" vertex="1" parent="1">
          <mxGeometry x="1275" y="480" width="200" height="40" as="geometry" />
        </mxCell>
        <mxCell id="5WnQGbEfDsJ_Zrcz6-hq-179" value="Master" style="shape=umlActor;verticalLabelPosition=bottom;verticalAlign=top;html=1;outlineConnect=0;fontSize=18;" vertex="1" parent="1">
          <mxGeometry x="1200" y="540" width="30" height="60" as="geometry" />
        </mxCell>
        <mxCell id="5WnQGbEfDsJ_Zrcz6-hq-180" value="" style="endArrow=classic;html=1;rounded=0;fontSize=18;exitX=1;exitY=0.067;exitDx=0;exitDy=0;exitPerimeter=0;entryX=0.05;entryY=0.017;entryDx=0;entryDy=0;entryPerimeter=0;" edge="1" parent="1" source="5WnQGbEfDsJ_Zrcz6-hq-173" target="5WnQGbEfDsJ_Zrcz6-hq-176">
          <mxGeometry width="50" height="50" relative="1" as="geometry">
            <mxPoint x="1255" y="730" as="sourcePoint" />
            <mxPoint x="1445" y="710" as="targetPoint" />
          </mxGeometry>
        </mxCell>
        <mxCell id="5WnQGbEfDsJ_Zrcz6-hq-181" value="&lt;span style=&quot;font-size: 12px; text-align: left; background-color: rgb(248, 249, 250);&quot;&gt;gerenciaAutorizacoes(idUser, tipoPermissao)&lt;/span&gt;" style="edgeLabel;html=1;align=center;verticalAlign=middle;resizable=0;points=[];fontSize=18;" vertex="1" connectable="0" parent="5WnQGbEfDsJ_Zrcz6-hq-180">
          <mxGeometry x="0.2937" y="-1" relative="1" as="geometry">
            <mxPoint x="-51" y="2" as="offset" />
          </mxGeometry>
        </mxCell>
        <mxCell id="5WnQGbEfDsJ_Zrcz6-hq-189" value="[if (usuarioExiste == true)]" style="text;html=1;strokeColor=none;fillColor=none;align=center;verticalAlign=middle;whiteSpace=wrap;rounded=0;" vertex="1" parent="1">
          <mxGeometry x="1522.5" y="680" width="170" height="30" as="geometry" />
        </mxCell>
        <mxCell id="5WnQGbEfDsJ_Zrcz6-hq-190" value="" style="endArrow=classic;html=1;rounded=0;fontSize=12;exitX=-0.2;exitY=0.534;exitDx=0;exitDy=0;exitPerimeter=0;" edge="1" parent="1" source="5WnQGbEfDsJ_Zrcz6-hq-176">
          <mxGeometry width="50" height="50" relative="1" as="geometry">
            <mxPoint x="1525" y="770" as="sourcePoint" />
            <mxPoint x="1225" y="780" as="targetPoint" />
          </mxGeometry>
        </mxCell>
        <mxCell id="5WnQGbEfDsJ_Zrcz6-hq-193" value="[else]" style="text;html=1;strokeColor=none;fillColor=none;align=center;verticalAlign=middle;whiteSpace=wrap;rounded=0;" vertex="1" parent="1">
          <mxGeometry x="1545" y="800" width="27.5" height="30" as="geometry" />
        </mxCell>
        <mxCell id="5WnQGbEfDsJ_Zrcz6-hq-194" value="" style="endArrow=classic;html=1;rounded=0;fontSize=12;" edge="1" parent="1">
          <mxGeometry width="50" height="50" relative="1" as="geometry">
            <mxPoint x="1520" y="870" as="sourcePoint" />
            <mxPoint x="1225" y="870" as="targetPoint" />
          </mxGeometry>
        </mxCell>
        <mxCell id="5WnQGbEfDsJ_Zrcz6-hq-195" value="&lt;font style=&quot;font-size: 12px;&quot;&gt;gravaLog()&lt;/font&gt;" style="text;html=1;align=center;verticalAlign=middle;resizable=0;points=[];autosize=1;strokeColor=none;fillColor=none;fontSize=18;" vertex="1" parent="1">
          <mxGeometry x="1555" y="720" width="80" height="40" as="geometry" />
        </mxCell>
        <mxCell id="5WnQGbEfDsJ_Zrcz6-hq-196" value="&lt;font style=&quot;font-size: 12px;&quot;&gt;return &quot;usuario não existe&quot;&lt;/font&gt;" style="text;html=1;align=center;verticalAlign=middle;resizable=0;points=[];autosize=1;strokeColor=none;fillColor=none;fontSize=18;" vertex="1" parent="1">
          <mxGeometry x="1532.5" y="850" width="160" height="40" as="geometry" />
        </mxCell>
        <mxCell id="5WnQGbEfDsJ_Zrcz6-hq-197" value="" style="points=[];perimeter=orthogonalPerimeter;rounded=0;shadow=0;strokeWidth=1;" vertex="1" parent="1">
          <mxGeometry x="1210" y="780" width="10" height="30" as="geometry" />
        </mxCell>
        <mxCell id="5WnQGbEfDsJ_Zrcz6-hq-198" value="" style="endArrow=none;dashed=1;html=1;dashPattern=1 3;strokeWidth=2;rounded=0;entryX=0.5;entryY=1;entryDx=0;entryDy=0;startArrow=none;" edge="1" parent="1" source="5WnQGbEfDsJ_Zrcz6-hq-199" target="5WnQGbEfDsJ_Zrcz6-hq-197">
          <mxGeometry width="50" height="50" relative="1" as="geometry">
            <mxPoint x="1215" y="940" as="sourcePoint" />
            <mxPoint x="1215" y="690" as="targetPoint" />
          </mxGeometry>
        </mxCell>
        <mxCell id="5WnQGbEfDsJ_Zrcz6-hq-199" value="" style="points=[];perimeter=orthogonalPerimeter;rounded=0;shadow=0;strokeWidth=1;" vertex="1" parent="1">
          <mxGeometry x="1210" y="870" width="10" height="30" as="geometry" />
        </mxCell>
        <mxCell id="5WnQGbEfDsJ_Zrcz6-hq-200" value="" style="endArrow=none;dashed=1;html=1;dashPattern=1 3;strokeWidth=2;rounded=0;entryX=0.5;entryY=1;entryDx=0;entryDy=0;startArrow=none;" edge="1" parent="1" target="5WnQGbEfDsJ_Zrcz6-hq-199">
          <mxGeometry width="50" height="50" relative="1" as="geometry">
            <mxPoint x="1215" y="910" as="sourcePoint" />
            <mxPoint x="1215" y="790" as="targetPoint" />
          </mxGeometry>
        </mxCell>
        <mxCell id="5WnQGbEfDsJ_Zrcz6-hq-203" value="" style="endArrow=none;dashed=1;html=1;dashPattern=1 3;strokeWidth=2;rounded=0;entryX=0.5;entryY=1;entryDx=0;entryDy=0;startArrow=none;" edge="1" parent="1" source="5WnQGbEfDsJ_Zrcz6-hq-205">
          <mxGeometry width="50" height="50" relative="1" as="geometry">
            <mxPoint x="1210" y="1380" as="sourcePoint" />
            <mxPoint x="1210" y="1150" as="targetPoint" />
          </mxGeometry>
        </mxCell>
        <mxCell id="5WnQGbEfDsJ_Zrcz6-hq-204" value="ControleMaster" style="rounded=0;whiteSpace=wrap;html=1;" vertex="1" parent="1">
          <mxGeometry x="1460" y="1090" width="120" height="60" as="geometry" />
        </mxCell>
        <mxCell id="5WnQGbEfDsJ_Zrcz6-hq-205" value="" style="points=[];perimeter=orthogonalPerimeter;rounded=0;shadow=0;strokeWidth=1;" vertex="1" parent="1">
          <mxGeometry x="1205" y="1180" width="10" height="30" as="geometry" />
        </mxCell>
        <mxCell id="5WnQGbEfDsJ_Zrcz6-hq-206" value="" style="endArrow=none;dashed=1;html=1;dashPattern=1 3;strokeWidth=2;rounded=0;entryX=0.5;entryY=1;entryDx=0;entryDy=0;startArrow=none;" edge="1" parent="1" source="5WnQGbEfDsJ_Zrcz6-hq-243" target="5WnQGbEfDsJ_Zrcz6-hq-205">
          <mxGeometry width="50" height="50" relative="1" as="geometry">
            <mxPoint x="1205" y="1590" as="sourcePoint" />
            <mxPoint x="1210" y="1150" as="targetPoint" />
          </mxGeometry>
        </mxCell>
        <mxCell id="5WnQGbEfDsJ_Zrcz6-hq-207" value="" style="endArrow=none;dashed=1;html=1;dashPattern=1 3;strokeWidth=2;rounded=0;entryX=0.5;entryY=1;entryDx=0;entryDy=0;startArrow=none;" edge="1" parent="1">
          <mxGeometry width="50" height="50" relative="1" as="geometry">
            <mxPoint x="1520.5" y="1420" as="sourcePoint" />
            <mxPoint x="1520" y="1420" as="targetPoint" />
          </mxGeometry>
        </mxCell>
        <mxCell id="5WnQGbEfDsJ_Zrcz6-hq-209" value="Cadastra usuários" style="text;html=1;resizable=0;autosize=1;align=center;verticalAlign=middle;points=[];fillColor=none;strokeColor=none;rounded=0;fontSize=18;" vertex="1" parent="1">
          <mxGeometry x="1285" y="1000" width="170" height="40" as="geometry" />
        </mxCell>
        <mxCell id="5WnQGbEfDsJ_Zrcz6-hq-210" value="Master" style="shape=umlActor;verticalLabelPosition=bottom;verticalAlign=top;html=1;outlineConnect=0;fontSize=18;" vertex="1" parent="1">
          <mxGeometry x="1195" y="1060" width="30" height="60" as="geometry" />
        </mxCell>
        <mxCell id="5WnQGbEfDsJ_Zrcz6-hq-211" value="" style="endArrow=classic;html=1;rounded=0;fontSize=18;exitX=1.083;exitY=0.028;exitDx=0;exitDy=0;exitPerimeter=0;entryX=-0.417;entryY=0.005;entryDx=0;entryDy=0;entryPerimeter=0;" edge="1" parent="1" source="5WnQGbEfDsJ_Zrcz6-hq-205" target="5WnQGbEfDsJ_Zrcz6-hq-235">
          <mxGeometry width="50" height="50" relative="1" as="geometry">
            <mxPoint x="1250" y="1250" as="sourcePoint" />
            <mxPoint x="1518" y="1183.06" as="targetPoint" />
          </mxGeometry>
        </mxCell>
        <mxCell id="5WnQGbEfDsJ_Zrcz6-hq-212" value="&lt;span style=&quot;font-size: 12px; text-align: left; background-color: rgb(248, 249, 250);&quot;&gt;cadastrarUsuarios(idUser)&lt;/span&gt;" style="edgeLabel;html=1;align=center;verticalAlign=middle;resizable=0;points=[];fontSize=18;" vertex="1" connectable="0" parent="5WnQGbEfDsJ_Zrcz6-hq-211">
          <mxGeometry x="0.2937" y="-1" relative="1" as="geometry">
            <mxPoint x="-51" y="2" as="offset" />
          </mxGeometry>
        </mxCell>
        <mxCell id="5WnQGbEfDsJ_Zrcz6-hq-213" value="[if (usuarioExiste == true)]" style="text;html=1;strokeColor=none;fillColor=none;align=center;verticalAlign=middle;whiteSpace=wrap;rounded=0;" vertex="1" parent="1">
          <mxGeometry x="1510" y="1200" width="170" height="30" as="geometry" />
        </mxCell>
        <mxCell id="5WnQGbEfDsJ_Zrcz6-hq-217" value="" style="endArrow=classic;html=1;rounded=0;fontSize=12;" edge="1" parent="1">
          <mxGeometry width="50" height="50" relative="1" as="geometry">
            <mxPoint x="1515" y="1300" as="sourcePoint" />
            <mxPoint x="1215" y="1300" as="targetPoint" />
          </mxGeometry>
        </mxCell>
        <mxCell id="5WnQGbEfDsJ_Zrcz6-hq-224" value="" style="endArrow=none;dashed=1;html=1;dashPattern=1 3;strokeWidth=2;rounded=0;entryX=0.5;entryY=1;entryDx=0;entryDy=0;startArrow=none;" edge="1" parent="1" source="5WnQGbEfDsJ_Zrcz6-hq-235">
          <mxGeometry width="50" height="50" relative="1" as="geometry">
            <mxPoint x="1513" y="1590" as="sourcePoint" />
            <mxPoint x="1517.5" y="1160" as="targetPoint" />
          </mxGeometry>
        </mxCell>
        <mxCell id="5WnQGbEfDsJ_Zrcz6-hq-228" value="&lt;font style=&quot;font-size: 12px;&quot;&gt;return &quot;autorização concedida&quot;&lt;/font&gt;" style="text;html=1;align=center;verticalAlign=middle;resizable=0;points=[];autosize=1;strokeColor=none;fillColor=none;fontSize=18;" vertex="1" parent="1">
          <mxGeometry x="1525" y="760" width="190" height="40" as="geometry" />
        </mxCell>
        <mxCell id="5WnQGbEfDsJ_Zrcz6-hq-229" style="edgeStyle=orthogonalEdgeStyle;rounded=0;orthogonalLoop=1;jettySize=auto;html=1;fontSize=12;exitX=1.133;exitY=0.788;exitDx=0;exitDy=0;exitPerimeter=0;" edge="1" parent="1" source="5WnQGbEfDsJ_Zrcz6-hq-176">
          <mxGeometry relative="1" as="geometry">
            <mxPoint x="1535" y="857" as="targetPoint" />
            <mxPoint x="1541.8375" y="846.54" as="sourcePoint" />
            <Array as="points">
              <mxPoint x="1542" y="833" />
              <mxPoint x="1542" y="830" />
              <mxPoint x="1561" y="830" />
              <mxPoint x="1561" y="857" />
            </Array>
          </mxGeometry>
        </mxCell>
        <mxCell id="5WnQGbEfDsJ_Zrcz6-hq-230" value="&lt;font style=&quot;font-size: 12px;&quot;&gt;gravaLog()&lt;/font&gt;" style="text;html=1;align=center;verticalAlign=middle;resizable=0;points=[];autosize=1;strokeColor=none;fillColor=none;fontSize=18;" vertex="1" parent="1">
          <mxGeometry x="1555" y="820" width="80" height="40" as="geometry" />
        </mxCell>
        <mxCell id="5WnQGbEfDsJ_Zrcz6-hq-233" style="edgeStyle=orthogonalEdgeStyle;rounded=0;orthogonalLoop=1;jettySize=auto;html=1;fontSize=12;" edge="1" parent="1">
          <mxGeometry relative="1" as="geometry">
            <mxPoint x="1525" y="1260" as="targetPoint" />
            <mxPoint x="1525" y="1250" as="sourcePoint" />
            <Array as="points">
              <mxPoint x="1525" y="1250" />
              <mxPoint x="1525" y="1233" />
              <mxPoint x="1561" y="1233" />
              <mxPoint x="1561" y="1260" />
            </Array>
          </mxGeometry>
        </mxCell>
        <mxCell id="5WnQGbEfDsJ_Zrcz6-hq-234" value="&lt;font style=&quot;font-size: 12px;&quot;&gt;gravaLog()&lt;/font&gt;" style="text;html=1;align=center;verticalAlign=middle;resizable=0;points=[];autosize=1;strokeColor=none;fillColor=none;fontSize=18;" vertex="1" parent="1">
          <mxGeometry x="1561" y="1220" width="80" height="40" as="geometry" />
        </mxCell>
        <mxCell id="5WnQGbEfDsJ_Zrcz6-hq-235" value="" style="points=[];perimeter=orthogonalPerimeter;rounded=0;shadow=0;strokeWidth=1;" vertex="1" parent="1">
          <mxGeometry x="1512.5" y="1180" width="10" height="260" as="geometry" />
        </mxCell>
        <mxCell id="5WnQGbEfDsJ_Zrcz6-hq-236" value="" style="endArrow=none;dashed=1;html=1;dashPattern=1 3;strokeWidth=2;rounded=0;entryX=0.5;entryY=1;entryDx=0;entryDy=0;startArrow=none;" edge="1" parent="1" target="5WnQGbEfDsJ_Zrcz6-hq-235">
          <mxGeometry width="50" height="50" relative="1" as="geometry">
            <mxPoint x="1518" y="1450" as="sourcePoint" />
            <mxPoint x="1517.5" y="1160" as="targetPoint" />
          </mxGeometry>
        </mxCell>
        <mxCell id="5WnQGbEfDsJ_Zrcz6-hq-237" value="&lt;font style=&quot;font-size: 12px;&quot;&gt;return &quot;usuário já existe&quot;&lt;/font&gt;" style="text;html=1;align=center;verticalAlign=middle;resizable=0;points=[];autosize=1;strokeColor=none;fillColor=none;fontSize=18;" vertex="1" parent="1">
          <mxGeometry x="1520" y="1270" width="150" height="40" as="geometry" />
        </mxCell>
        <mxCell id="5WnQGbEfDsJ_Zrcz6-hq-238" value="[else]" style="text;html=1;strokeColor=none;fillColor=none;align=center;verticalAlign=middle;whiteSpace=wrap;rounded=0;" vertex="1" parent="1">
          <mxGeometry x="1525" y="1320" width="27.5" height="30" as="geometry" />
        </mxCell>
        <mxCell id="5WnQGbEfDsJ_Zrcz6-hq-239" style="edgeStyle=orthogonalEdgeStyle;rounded=0;orthogonalLoop=1;jettySize=auto;html=1;fontSize=12;" edge="1" parent="1">
          <mxGeometry relative="1" as="geometry">
            <mxPoint x="1524.5" y="1387" as="targetPoint" />
            <mxPoint x="1524.5" y="1377" as="sourcePoint" />
            <Array as="points">
              <mxPoint x="1524.5" y="1377" />
              <mxPoint x="1524.5" y="1360" />
              <mxPoint x="1560.5" y="1360" />
              <mxPoint x="1560.5" y="1387" />
            </Array>
          </mxGeometry>
        </mxCell>
        <mxCell id="5WnQGbEfDsJ_Zrcz6-hq-240" value="&lt;font style=&quot;font-size: 12px;&quot;&gt;gravaLog()&lt;/font&gt;" style="text;html=1;align=center;verticalAlign=middle;resizable=0;points=[];autosize=1;strokeColor=none;fillColor=none;fontSize=18;" vertex="1" parent="1">
          <mxGeometry x="1567.5" y="1350" width="80" height="40" as="geometry" />
        </mxCell>
        <mxCell id="5WnQGbEfDsJ_Zrcz6-hq-241" value="&lt;font style=&quot;font-size: 12px;&quot;&gt;return &quot;usuário criado com sucesso&quot;&lt;/font&gt;" style="text;html=1;align=center;verticalAlign=middle;resizable=0;points=[];autosize=1;strokeColor=none;fillColor=none;fontSize=18;" vertex="1" parent="1">
          <mxGeometry x="1510" y="1380" width="220" height="40" as="geometry" />
        </mxCell>
        <mxCell id="5WnQGbEfDsJ_Zrcz6-hq-242" value="" style="endArrow=classic;html=1;rounded=0;fontSize=12;" edge="1" parent="1">
          <mxGeometry width="50" height="50" relative="1" as="geometry">
            <mxPoint x="1510" y="1409.58" as="sourcePoint" />
            <mxPoint x="1215" y="1410" as="targetPoint" />
          </mxGeometry>
        </mxCell>
        <mxCell id="5WnQGbEfDsJ_Zrcz6-hq-243" value="" style="points=[];perimeter=orthogonalPerimeter;rounded=0;shadow=0;strokeWidth=1;" vertex="1" parent="1">
          <mxGeometry x="1205" y="1300" width="10" height="30" as="geometry" />
        </mxCell>
        <mxCell id="5WnQGbEfDsJ_Zrcz6-hq-244" value="" style="endArrow=none;dashed=1;html=1;dashPattern=1 3;strokeWidth=2;rounded=0;entryX=0.5;entryY=1;entryDx=0;entryDy=0;startArrow=none;" edge="1" parent="1" source="5WnQGbEfDsJ_Zrcz6-hq-245" target="5WnQGbEfDsJ_Zrcz6-hq-243">
          <mxGeometry width="50" height="50" relative="1" as="geometry">
            <mxPoint x="1205" y="1590" as="sourcePoint" />
            <mxPoint x="1210" y="1210" as="targetPoint" />
          </mxGeometry>
        </mxCell>
        <mxCell id="5WnQGbEfDsJ_Zrcz6-hq-245" value="" style="points=[];perimeter=orthogonalPerimeter;rounded=0;shadow=0;strokeWidth=1;" vertex="1" parent="1">
          <mxGeometry x="1205" y="1410" width="10" height="30" as="geometry" />
        </mxCell>
        <mxCell id="5WnQGbEfDsJ_Zrcz6-hq-247" value="" style="endArrow=none;dashed=1;html=1;dashPattern=1 3;strokeWidth=2;rounded=0;entryX=0.5;entryY=1;entryDx=0;entryDy=0;startArrow=none;" edge="1" parent="1" target="5WnQGbEfDsJ_Zrcz6-hq-245">
          <mxGeometry width="50" height="50" relative="1" as="geometry">
            <mxPoint x="1205" y="1450" as="sourcePoint" />
            <mxPoint x="1205" y="1330" as="targetPoint" />
          </mxGeometry>
        </mxCell>
        <mxCell id="5WnQGbEfDsJ_Zrcz6-hq-248" value="" style="endArrow=none;dashed=1;html=1;dashPattern=1 3;strokeWidth=2;rounded=0;entryX=0.5;entryY=1;entryDx=0;entryDy=0;startArrow=none;" edge="1" parent="1" source="5WnQGbEfDsJ_Zrcz6-hq-250">
          <mxGeometry width="50" height="50" relative="1" as="geometry">
            <mxPoint x="1215" y="1880" as="sourcePoint" />
            <mxPoint x="1215" y="1650" as="targetPoint" />
          </mxGeometry>
        </mxCell>
        <mxCell id="5WnQGbEfDsJ_Zrcz6-hq-249" value="ControleMaster" style="rounded=0;whiteSpace=wrap;html=1;" vertex="1" parent="1">
          <mxGeometry x="1465" y="1590" width="120" height="60" as="geometry" />
        </mxCell>
        <mxCell id="5WnQGbEfDsJ_Zrcz6-hq-250" value="" style="points=[];perimeter=orthogonalPerimeter;rounded=0;shadow=0;strokeWidth=1;" vertex="1" parent="1">
          <mxGeometry x="1210" y="1680" width="10" height="30" as="geometry" />
        </mxCell>
        <mxCell id="5WnQGbEfDsJ_Zrcz6-hq-251" value="" style="endArrow=none;dashed=1;html=1;dashPattern=1 3;strokeWidth=2;rounded=0;entryX=0.5;entryY=1;entryDx=0;entryDy=0;startArrow=none;" edge="1" parent="1" source="5WnQGbEfDsJ_Zrcz6-hq-270" target="5WnQGbEfDsJ_Zrcz6-hq-250">
          <mxGeometry width="50" height="50" relative="1" as="geometry">
            <mxPoint x="1210" y="2090" as="sourcePoint" />
            <mxPoint x="1215" y="1650" as="targetPoint" />
          </mxGeometry>
        </mxCell>
        <mxCell id="5WnQGbEfDsJ_Zrcz6-hq-252" value="" style="endArrow=none;dashed=1;html=1;dashPattern=1 3;strokeWidth=2;rounded=0;entryX=0.5;entryY=1;entryDx=0;entryDy=0;startArrow=none;" edge="1" parent="1">
          <mxGeometry width="50" height="50" relative="1" as="geometry">
            <mxPoint x="1525.5" y="1920" as="sourcePoint" />
            <mxPoint x="1525" y="1920" as="targetPoint" />
          </mxGeometry>
        </mxCell>
        <mxCell id="5WnQGbEfDsJ_Zrcz6-hq-253" value="Deletar usuários" style="text;html=1;resizable=0;autosize=1;align=center;verticalAlign=middle;points=[];fillColor=none;strokeColor=none;rounded=0;fontSize=18;" vertex="1" parent="1">
          <mxGeometry x="1300" y="1500" width="150" height="40" as="geometry" />
        </mxCell>
        <mxCell id="5WnQGbEfDsJ_Zrcz6-hq-254" value="Master" style="shape=umlActor;verticalLabelPosition=bottom;verticalAlign=top;html=1;outlineConnect=0;fontSize=18;" vertex="1" parent="1">
          <mxGeometry x="1200" y="1560" width="30" height="60" as="geometry" />
        </mxCell>
        <mxCell id="5WnQGbEfDsJ_Zrcz6-hq-255" value="" style="endArrow=classic;html=1;rounded=0;fontSize=18;exitX=1.083;exitY=0.028;exitDx=0;exitDy=0;exitPerimeter=0;entryX=-0.417;entryY=0.005;entryDx=0;entryDy=0;entryPerimeter=0;" edge="1" parent="1" source="5WnQGbEfDsJ_Zrcz6-hq-250" target="5WnQGbEfDsJ_Zrcz6-hq-262">
          <mxGeometry width="50" height="50" relative="1" as="geometry">
            <mxPoint x="1255" y="1750" as="sourcePoint" />
            <mxPoint x="1523" y="1683.06" as="targetPoint" />
          </mxGeometry>
        </mxCell>
        <mxCell id="5WnQGbEfDsJ_Zrcz6-hq-256" value="&lt;span style=&quot;font-size: 12px; text-align: left; background-color: rgb(248, 249, 250);&quot;&gt;cadastrarUsuarios(idUser)&lt;/span&gt;" style="edgeLabel;html=1;align=center;verticalAlign=middle;resizable=0;points=[];fontSize=18;" vertex="1" connectable="0" parent="5WnQGbEfDsJ_Zrcz6-hq-255">
          <mxGeometry x="0.2937" y="-1" relative="1" as="geometry">
            <mxPoint x="-51" y="2" as="offset" />
          </mxGeometry>
        </mxCell>
        <mxCell id="5WnQGbEfDsJ_Zrcz6-hq-257" value="[if (usuarioExiste == true)]" style="text;html=1;strokeColor=none;fillColor=none;align=center;verticalAlign=middle;whiteSpace=wrap;rounded=0;" vertex="1" parent="1">
          <mxGeometry x="1515" y="1700" width="170" height="30" as="geometry" />
        </mxCell>
        <mxCell id="5WnQGbEfDsJ_Zrcz6-hq-258" value="" style="endArrow=classic;html=1;rounded=0;fontSize=12;" edge="1" parent="1">
          <mxGeometry width="50" height="50" relative="1" as="geometry">
            <mxPoint x="1520" y="1800" as="sourcePoint" />
            <mxPoint x="1220" y="1800" as="targetPoint" />
          </mxGeometry>
        </mxCell>
        <mxCell id="5WnQGbEfDsJ_Zrcz6-hq-259" value="" style="endArrow=none;dashed=1;html=1;dashPattern=1 3;strokeWidth=2;rounded=0;entryX=0.5;entryY=1;entryDx=0;entryDy=0;startArrow=none;" edge="1" parent="1" source="5WnQGbEfDsJ_Zrcz6-hq-262">
          <mxGeometry width="50" height="50" relative="1" as="geometry">
            <mxPoint x="1518" y="2090" as="sourcePoint" />
            <mxPoint x="1522.5" y="1660" as="targetPoint" />
          </mxGeometry>
        </mxCell>
        <mxCell id="5WnQGbEfDsJ_Zrcz6-hq-260" style="edgeStyle=orthogonalEdgeStyle;rounded=0;orthogonalLoop=1;jettySize=auto;html=1;fontSize=12;" edge="1" parent="1">
          <mxGeometry relative="1" as="geometry">
            <mxPoint x="1530" y="1760" as="targetPoint" />
            <mxPoint x="1530" y="1750" as="sourcePoint" />
            <Array as="points">
              <mxPoint x="1530" y="1750" />
              <mxPoint x="1530" y="1733" />
              <mxPoint x="1566" y="1733" />
              <mxPoint x="1566" y="1760" />
            </Array>
          </mxGeometry>
        </mxCell>
        <mxCell id="5WnQGbEfDsJ_Zrcz6-hq-261" value="&lt;font style=&quot;font-size: 12px;&quot;&gt;gravaLog()&lt;/font&gt;" style="text;html=1;align=center;verticalAlign=middle;resizable=0;points=[];autosize=1;strokeColor=none;fillColor=none;fontSize=18;" vertex="1" parent="1">
          <mxGeometry x="1566" y="1720" width="80" height="40" as="geometry" />
        </mxCell>
        <mxCell id="5WnQGbEfDsJ_Zrcz6-hq-262" value="" style="points=[];perimeter=orthogonalPerimeter;rounded=0;shadow=0;strokeWidth=1;" vertex="1" parent="1">
          <mxGeometry x="1517.5" y="1680" width="10" height="260" as="geometry" />
        </mxCell>
        <mxCell id="5WnQGbEfDsJ_Zrcz6-hq-263" value="" style="endArrow=none;dashed=1;html=1;dashPattern=1 3;strokeWidth=2;rounded=0;entryX=0.5;entryY=1;entryDx=0;entryDy=0;startArrow=none;" edge="1" parent="1" target="5WnQGbEfDsJ_Zrcz6-hq-262">
          <mxGeometry width="50" height="50" relative="1" as="geometry">
            <mxPoint x="1523" y="1950" as="sourcePoint" />
            <mxPoint x="1522.5" y="1660" as="targetPoint" />
          </mxGeometry>
        </mxCell>
        <mxCell id="5WnQGbEfDsJ_Zrcz6-hq-264" value="&lt;font style=&quot;font-size: 12px;&quot;&gt;return &quot;usuário deletado&quot;&lt;/font&gt;" style="text;html=1;align=center;verticalAlign=middle;resizable=0;points=[];autosize=1;strokeColor=none;fillColor=none;fontSize=18;" vertex="1" parent="1">
          <mxGeometry x="1520" y="1770" width="160" height="40" as="geometry" />
        </mxCell>
        <mxCell id="5WnQGbEfDsJ_Zrcz6-hq-265" value="[else]" style="text;html=1;strokeColor=none;fillColor=none;align=center;verticalAlign=middle;whiteSpace=wrap;rounded=0;" vertex="1" parent="1">
          <mxGeometry x="1530" y="1820" width="27.5" height="30" as="geometry" />
        </mxCell>
        <mxCell id="5WnQGbEfDsJ_Zrcz6-hq-266" style="edgeStyle=orthogonalEdgeStyle;rounded=0;orthogonalLoop=1;jettySize=auto;html=1;fontSize=12;" edge="1" parent="1">
          <mxGeometry relative="1" as="geometry">
            <mxPoint x="1529.5" y="1887" as="targetPoint" />
            <mxPoint x="1529.5" y="1877" as="sourcePoint" />
            <Array as="points">
              <mxPoint x="1529.5" y="1877" />
              <mxPoint x="1529.5" y="1860" />
              <mxPoint x="1565.5" y="1860" />
              <mxPoint x="1565.5" y="1887" />
            </Array>
          </mxGeometry>
        </mxCell>
        <mxCell id="5WnQGbEfDsJ_Zrcz6-hq-267" value="&lt;font style=&quot;font-size: 12px;&quot;&gt;gravaLog()&lt;/font&gt;" style="text;html=1;align=center;verticalAlign=middle;resizable=0;points=[];autosize=1;strokeColor=none;fillColor=none;fontSize=18;" vertex="1" parent="1">
          <mxGeometry x="1572.5" y="1850" width="80" height="40" as="geometry" />
        </mxCell>
        <mxCell id="5WnQGbEfDsJ_Zrcz6-hq-268" value="&lt;font style=&quot;font-size: 12px;&quot;&gt;return &quot;usuário não existe&quot;&lt;/font&gt;" style="text;html=1;align=center;verticalAlign=middle;resizable=0;points=[];autosize=1;strokeColor=none;fillColor=none;fontSize=18;" vertex="1" parent="1">
          <mxGeometry x="1525" y="1880" width="160" height="40" as="geometry" />
        </mxCell>
        <mxCell id="5WnQGbEfDsJ_Zrcz6-hq-269" value="" style="endArrow=classic;html=1;rounded=0;fontSize=12;" edge="1" parent="1">
          <mxGeometry width="50" height="50" relative="1" as="geometry">
            <mxPoint x="1515" y="1909.58" as="sourcePoint" />
            <mxPoint x="1220" y="1910" as="targetPoint" />
          </mxGeometry>
        </mxCell>
        <mxCell id="5WnQGbEfDsJ_Zrcz6-hq-270" value="" style="points=[];perimeter=orthogonalPerimeter;rounded=0;shadow=0;strokeWidth=1;" vertex="1" parent="1">
          <mxGeometry x="1210" y="1800" width="10" height="30" as="geometry" />
        </mxCell>
        <mxCell id="5WnQGbEfDsJ_Zrcz6-hq-271" value="" style="endArrow=none;dashed=1;html=1;dashPattern=1 3;strokeWidth=2;rounded=0;entryX=0.5;entryY=1;entryDx=0;entryDy=0;startArrow=none;" edge="1" parent="1" source="5WnQGbEfDsJ_Zrcz6-hq-272" target="5WnQGbEfDsJ_Zrcz6-hq-270">
          <mxGeometry width="50" height="50" relative="1" as="geometry">
            <mxPoint x="1210" y="2090" as="sourcePoint" />
            <mxPoint x="1215" y="1710" as="targetPoint" />
          </mxGeometry>
        </mxCell>
        <mxCell id="5WnQGbEfDsJ_Zrcz6-hq-272" value="" style="points=[];perimeter=orthogonalPerimeter;rounded=0;shadow=0;strokeWidth=1;" vertex="1" parent="1">
          <mxGeometry x="1210" y="1910" width="10" height="30" as="geometry" />
        </mxCell>
        <mxCell id="5WnQGbEfDsJ_Zrcz6-hq-273" value="" style="endArrow=none;dashed=1;html=1;dashPattern=1 3;strokeWidth=2;rounded=0;entryX=0.5;entryY=1;entryDx=0;entryDy=0;startArrow=none;" edge="1" parent="1" target="5WnQGbEfDsJ_Zrcz6-hq-272">
          <mxGeometry width="50" height="50" relative="1" as="geometry">
            <mxPoint x="1210" y="1950" as="sourcePoint" />
            <mxPoint x="1210" y="1830" as="targetPoint" />
          </mxGeometry>
        </mxCell>
        <mxCell id="5WnQGbEfDsJ_Zrcz6-hq-274" value="" style="endArrow=none;dashed=1;html=1;dashPattern=1 3;strokeWidth=2;rounded=0;entryX=0.5;entryY=1;entryDx=0;entryDy=0;startArrow=none;" edge="1" parent="1" target="5WnQGbEfDsJ_Zrcz6-hq-281">
          <mxGeometry width="50" height="50" relative="1" as="geometry">
            <mxPoint x="2108" y="980" as="sourcePoint" />
            <mxPoint x="2105" y="665" as="targetPoint" />
          </mxGeometry>
        </mxCell>
        <mxCell id="5WnQGbEfDsJ_Zrcz6-hq-275" value="" style="endArrow=none;dashed=1;html=1;dashPattern=1 3;strokeWidth=2;rounded=0;entryX=0.5;entryY=1;entryDx=0;entryDy=0;startArrow=none;" edge="1" parent="1" source="5WnQGbEfDsJ_Zrcz6-hq-281" target="5WnQGbEfDsJ_Zrcz6-hq-277">
          <mxGeometry width="50" height="50" relative="1" as="geometry">
            <mxPoint x="2105.5" y="1205" as="sourcePoint" />
            <mxPoint x="2115" y="775" as="targetPoint" />
          </mxGeometry>
        </mxCell>
        <mxCell id="5WnQGbEfDsJ_Zrcz6-hq-276" value="" style="endArrow=none;dashed=1;html=1;dashPattern=1 3;strokeWidth=2;rounded=0;entryX=0.5;entryY=1;entryDx=0;entryDy=0;startArrow=none;" edge="1" parent="1" source="5WnQGbEfDsJ_Zrcz6-hq-278">
          <mxGeometry width="50" height="50" relative="1" as="geometry">
            <mxPoint x="1795" y="895" as="sourcePoint" />
            <mxPoint x="1794.9999999999995" y="665" as="targetPoint" />
          </mxGeometry>
        </mxCell>
        <mxCell id="5WnQGbEfDsJ_Zrcz6-hq-277" value="ControleControlador" style="rounded=0;whiteSpace=wrap;html=1;" vertex="1" parent="1">
          <mxGeometry x="2045" y="605" width="120" height="60" as="geometry" />
        </mxCell>
        <mxCell id="5WnQGbEfDsJ_Zrcz6-hq-278" value="" style="points=[];perimeter=orthogonalPerimeter;rounded=0;shadow=0;strokeWidth=1;" vertex="1" parent="1">
          <mxGeometry x="1790" y="695" width="10" height="30" as="geometry" />
        </mxCell>
        <mxCell id="5WnQGbEfDsJ_Zrcz6-hq-279" value="" style="endArrow=none;dashed=1;html=1;dashPattern=1 3;strokeWidth=2;rounded=0;entryX=0.5;entryY=1;entryDx=0;entryDy=0;startArrow=none;" edge="1" parent="1" source="5WnQGbEfDsJ_Zrcz6-hq-292" target="5WnQGbEfDsJ_Zrcz6-hq-278">
          <mxGeometry width="50" height="50" relative="1" as="geometry">
            <mxPoint x="1795" y="975" as="sourcePoint" />
            <mxPoint x="1795" y="665" as="targetPoint" />
          </mxGeometry>
        </mxCell>
        <mxCell id="5WnQGbEfDsJ_Zrcz6-hq-280" value="" style="endArrow=none;dashed=1;html=1;dashPattern=1 3;strokeWidth=2;rounded=0;entryX=0.5;entryY=1;entryDx=0;entryDy=0;startArrow=none;" edge="1" parent="1">
          <mxGeometry width="50" height="50" relative="1" as="geometry">
            <mxPoint x="2105.5" y="935" as="sourcePoint" />
            <mxPoint x="2105" y="935" as="targetPoint" />
          </mxGeometry>
        </mxCell>
        <mxCell id="5WnQGbEfDsJ_Zrcz6-hq-300" style="edgeStyle=orthogonalEdgeStyle;rounded=0;orthogonalLoop=1;jettySize=auto;html=1;fontSize=12;" edge="1" parent="1" source="5WnQGbEfDsJ_Zrcz6-hq-281" target="5WnQGbEfDsJ_Zrcz6-hq-292">
          <mxGeometry relative="1" as="geometry">
            <Array as="points">
              <mxPoint x="1870" y="780" />
              <mxPoint x="1870" y="780" />
            </Array>
          </mxGeometry>
        </mxCell>
        <mxCell id="5WnQGbEfDsJ_Zrcz6-hq-281" value="" style="points=[];perimeter=orthogonalPerimeter;rounded=0;shadow=0;strokeWidth=1;" vertex="1" parent="1">
          <mxGeometry x="2102.5" y="695" width="10" height="95" as="geometry" />
        </mxCell>
        <mxCell id="5WnQGbEfDsJ_Zrcz6-hq-283" value="Configura Hotel" style="text;html=1;resizable=0;autosize=1;align=center;verticalAlign=middle;points=[];fillColor=none;strokeColor=none;rounded=0;fontSize=18;" vertex="1" parent="1">
          <mxGeometry x="1885" y="500" width="150" height="40" as="geometry" />
        </mxCell>
        <mxCell id="5WnQGbEfDsJ_Zrcz6-hq-284" value="Controlador" style="shape=umlActor;verticalLabelPosition=bottom;verticalAlign=top;html=1;outlineConnect=0;fontSize=18;" vertex="1" parent="1">
          <mxGeometry x="1780" y="575" width="30" height="60" as="geometry" />
        </mxCell>
        <mxCell id="5WnQGbEfDsJ_Zrcz6-hq-285" value="" style="endArrow=classic;html=1;rounded=0;fontSize=18;exitX=1;exitY=0.067;exitDx=0;exitDy=0;exitPerimeter=0;entryX=0.05;entryY=0.017;entryDx=0;entryDy=0;entryPerimeter=0;" edge="1" parent="1" source="5WnQGbEfDsJ_Zrcz6-hq-278" target="5WnQGbEfDsJ_Zrcz6-hq-281">
          <mxGeometry width="50" height="50" relative="1" as="geometry">
            <mxPoint x="1835" y="765" as="sourcePoint" />
            <mxPoint x="2025" y="745" as="targetPoint" />
          </mxGeometry>
        </mxCell>
        <mxCell id="5WnQGbEfDsJ_Zrcz6-hq-286" value="&lt;span style=&quot;font-size: 11px;&quot;&gt;cadastraElevadores(numElevadores)&lt;/span&gt;" style="edgeLabel;html=1;align=center;verticalAlign=middle;resizable=0;points=[];fontSize=18;" vertex="1" connectable="0" parent="5WnQGbEfDsJ_Zrcz6-hq-285">
          <mxGeometry x="0.2937" y="-1" relative="1" as="geometry">
            <mxPoint x="-51" y="2" as="offset" />
          </mxGeometry>
        </mxCell>
        <mxCell id="5WnQGbEfDsJ_Zrcz6-hq-292" value="" style="points=[];perimeter=orthogonalPerimeter;rounded=0;shadow=0;strokeWidth=1;" vertex="1" parent="1">
          <mxGeometry x="1790" y="775" width="10" height="65" as="geometry" />
        </mxCell>
        <mxCell id="5WnQGbEfDsJ_Zrcz6-hq-293" value="" style="endArrow=none;dashed=1;html=1;dashPattern=1 3;strokeWidth=2;rounded=0;entryX=0.5;entryY=1;entryDx=0;entryDy=0;startArrow=none;" edge="1" parent="1" target="5WnQGbEfDsJ_Zrcz6-hq-292" source="5WnQGbEfDsJ_Zrcz6-hq-312">
          <mxGeometry width="50" height="50" relative="1" as="geometry">
            <mxPoint x="1800" y="1240" as="sourcePoint" />
            <mxPoint x="1795" y="725" as="targetPoint" />
          </mxGeometry>
        </mxCell>
        <mxCell id="5WnQGbEfDsJ_Zrcz6-hq-295" value="[if (numElevadores) &amp;gt; 20]" style="text;html=1;strokeColor=none;fillColor=none;align=center;verticalAlign=middle;whiteSpace=wrap;rounded=0;" vertex="1" parent="1">
          <mxGeometry x="2102.5" y="690" width="170" height="30" as="geometry" />
        </mxCell>
        <mxCell id="5WnQGbEfDsJ_Zrcz6-hq-297" style="edgeStyle=orthogonalEdgeStyle;rounded=0;orthogonalLoop=1;jettySize=auto;html=1;fontSize=12;" edge="1" parent="1">
          <mxGeometry relative="1" as="geometry">
            <mxPoint x="2112.4999999999995" y="746.94" as="targetPoint" />
            <mxPoint x="2112.4999999999995" y="736.94" as="sourcePoint" />
            <Array as="points">
              <mxPoint x="2112.5" y="736.94" />
              <mxPoint x="2112.5" y="719.94" />
              <mxPoint x="2148.5" y="719.94" />
              <mxPoint x="2148.5" y="746.94" />
            </Array>
          </mxGeometry>
        </mxCell>
        <mxCell id="5WnQGbEfDsJ_Zrcz6-hq-298" value="sortElevadores()" style="text;html=1;align=center;verticalAlign=middle;resizable=0;points=[];autosize=1;strokeColor=none;fillColor=none;fontSize=12;" vertex="1" parent="1">
          <mxGeometry x="2162.5" y="720" width="110" height="30" as="geometry" />
        </mxCell>
        <mxCell id="5WnQGbEfDsJ_Zrcz6-hq-301" value="" style="points=[];perimeter=orthogonalPerimeter;rounded=0;shadow=0;strokeWidth=1;" vertex="1" parent="1">
          <mxGeometry x="2102.5" y="830" width="10" height="135" as="geometry" />
        </mxCell>
        <mxCell id="5WnQGbEfDsJ_Zrcz6-hq-303" value="" style="endArrow=classic;html=1;rounded=0;fontSize=18;exitX=1;exitY=0.067;exitDx=0;exitDy=0;exitPerimeter=0;entryX=0.05;entryY=0.017;entryDx=0;entryDy=0;entryPerimeter=0;" edge="1" parent="1">
          <mxGeometry width="50" height="50" relative="1" as="geometry">
            <mxPoint x="1799.9999999999995" y="830.4000000000002" as="sourcePoint" />
            <mxPoint x="2103" y="830.0050000000002" as="targetPoint" />
          </mxGeometry>
        </mxCell>
        <mxCell id="5WnQGbEfDsJ_Zrcz6-hq-304" value="&lt;span style=&quot;font-size: 12px; text-align: left; background-color: rgb(248, 249, 250);&quot;&gt;cadastraAndares(numAndares, isVip)&lt;/span&gt;" style="edgeLabel;html=1;align=center;verticalAlign=middle;resizable=0;points=[];fontSize=18;" vertex="1" connectable="0" parent="5WnQGbEfDsJ_Zrcz6-hq-303">
          <mxGeometry x="0.2937" y="-1" relative="1" as="geometry">
            <mxPoint x="-46" y="-11" as="offset" />
          </mxGeometry>
        </mxCell>
        <mxCell id="5WnQGbEfDsJ_Zrcz6-hq-305" style="edgeStyle=orthogonalEdgeStyle;rounded=0;orthogonalLoop=1;jettySize=auto;html=1;fontSize=12;" edge="1" parent="1">
          <mxGeometry relative="1" as="geometry">
            <mxPoint x="2112.5" y="886.94" as="targetPoint" />
            <mxPoint x="2112.5" y="876.94" as="sourcePoint" />
            <Array as="points">
              <mxPoint x="2112.5" y="876.94" />
              <mxPoint x="2112.5" y="859.94" />
              <mxPoint x="2148.5" y="859.94" />
              <mxPoint x="2148.5" y="886.94" />
            </Array>
          </mxGeometry>
        </mxCell>
        <mxCell id="5WnQGbEfDsJ_Zrcz6-hq-306" value="setAndares()" style="text;html=1;align=center;verticalAlign=middle;resizable=0;points=[];autosize=1;strokeColor=none;fillColor=none;fontSize=12;" vertex="1" parent="1">
          <mxGeometry x="2165" y="860" width="90" height="30" as="geometry" />
        </mxCell>
        <mxCell id="5WnQGbEfDsJ_Zrcz6-hq-307" value="&lt;font style=&quot;font-size: 12px;&quot;&gt;gravaLog()&lt;/font&gt;" style="text;html=1;align=center;verticalAlign=middle;resizable=0;points=[];autosize=1;strokeColor=none;fillColor=none;fontSize=18;" vertex="1" parent="1">
          <mxGeometry x="2165" y="900" width="80" height="40" as="geometry" />
        </mxCell>
        <mxCell id="5WnQGbEfDsJ_Zrcz6-hq-308" style="edgeStyle=orthogonalEdgeStyle;rounded=0;orthogonalLoop=1;jettySize=auto;html=1;fontSize=12;" edge="1" parent="1">
          <mxGeometry relative="1" as="geometry">
            <mxPoint x="2116.99" y="940" as="targetPoint" />
            <mxPoint x="2116.99" y="930" as="sourcePoint" />
            <Array as="points">
              <mxPoint x="2116.99" y="930" />
              <mxPoint x="2116.99" y="913" />
              <mxPoint x="2152.99" y="913" />
              <mxPoint x="2152.99" y="940" />
            </Array>
          </mxGeometry>
        </mxCell>
        <mxCell id="5WnQGbEfDsJ_Zrcz6-hq-309" style="edgeStyle=orthogonalEdgeStyle;rounded=0;orthogonalLoop=1;jettySize=auto;html=1;fontSize=12;" edge="1" parent="1">
          <mxGeometry relative="1" as="geometry">
            <mxPoint x="2116.99" y="783.5" as="targetPoint" />
            <mxPoint x="2116.99" y="773.5" as="sourcePoint" />
            <Array as="points">
              <mxPoint x="2117" y="757" />
              <mxPoint x="2150" y="757" />
              <mxPoint x="2150" y="783" />
            </Array>
          </mxGeometry>
        </mxCell>
        <mxCell id="5WnQGbEfDsJ_Zrcz6-hq-310" value="&lt;font style=&quot;font-size: 12px;&quot;&gt;gravaLog()&lt;/font&gt;" style="text;html=1;align=center;verticalAlign=middle;resizable=0;points=[];autosize=1;strokeColor=none;fillColor=none;fontSize=18;" vertex="1" parent="1">
          <mxGeometry x="2170" y="750" width="80" height="40" as="geometry" />
        </mxCell>
        <mxCell id="5WnQGbEfDsJ_Zrcz6-hq-311" style="edgeStyle=orthogonalEdgeStyle;rounded=0;orthogonalLoop=1;jettySize=auto;html=1;fontSize=12;" edge="1" parent="1">
          <mxGeometry relative="1" as="geometry">
            <mxPoint x="2092.5" y="963.8188235294122" as="sourcePoint" />
            <mxPoint x="1810" y="964" as="targetPoint" />
            <Array as="points">
              <mxPoint x="1860" y="963.76" />
              <mxPoint x="1860" y="963.76" />
            </Array>
          </mxGeometry>
        </mxCell>
        <mxCell id="5WnQGbEfDsJ_Zrcz6-hq-312" value="" style="points=[];perimeter=orthogonalPerimeter;rounded=0;shadow=0;strokeWidth=1;" vertex="1" parent="1">
          <mxGeometry x="1790" y="960" width="10" height="20" as="geometry" />
        </mxCell>
        <mxCell id="5WnQGbEfDsJ_Zrcz6-hq-313" value="" style="endArrow=none;dashed=1;html=1;dashPattern=1 3;strokeWidth=2;rounded=0;entryX=0.5;entryY=1;entryDx=0;entryDy=0;startArrow=none;" edge="1" parent="1" target="5WnQGbEfDsJ_Zrcz6-hq-312">
          <mxGeometry width="50" height="50" relative="1" as="geometry">
            <mxPoint x="1795" y="990" as="sourcePoint" />
            <mxPoint x="1794.9999999999995" y="850" as="targetPoint" />
          </mxGeometry>
        </mxCell>
        <mxCell id="5WnQGbEfDsJ_Zrcz6-hq-314" value="" style="endArrow=none;dashed=1;html=1;dashPattern=1 3;strokeWidth=2;rounded=0;entryX=0.5;entryY=1;entryDx=0;entryDy=0;startArrow=none;" edge="1" parent="1" target="5WnQGbEfDsJ_Zrcz6-hq-321" source="5WnQGbEfDsJ_Zrcz6-hq-363">
          <mxGeometry width="50" height="50" relative="1" as="geometry">
            <mxPoint x="2848" y="381.67" as="sourcePoint" />
            <mxPoint x="2845" y="166.67" as="targetPoint" />
          </mxGeometry>
        </mxCell>
        <mxCell id="5WnQGbEfDsJ_Zrcz6-hq-315" value="" style="endArrow=none;dashed=1;html=1;dashPattern=1 3;strokeWidth=2;rounded=0;entryX=0.5;entryY=1;entryDx=0;entryDy=0;startArrow=none;" edge="1" parent="1" source="5WnQGbEfDsJ_Zrcz6-hq-321" target="5WnQGbEfDsJ_Zrcz6-hq-317">
          <mxGeometry width="50" height="50" relative="1" as="geometry">
            <mxPoint x="2845.5" y="706.67" as="sourcePoint" />
            <mxPoint x="2855" y="276.67" as="targetPoint" />
          </mxGeometry>
        </mxCell>
        <mxCell id="5WnQGbEfDsJ_Zrcz6-hq-316" value="" style="endArrow=none;dashed=1;html=1;dashPattern=1 3;strokeWidth=2;rounded=0;entryX=0.5;entryY=1;entryDx=0;entryDy=0;startArrow=none;" edge="1" parent="1" source="5WnQGbEfDsJ_Zrcz6-hq-349">
          <mxGeometry width="50" height="50" relative="1" as="geometry">
            <mxPoint x="2535" y="420" as="sourcePoint" />
            <mxPoint x="2535" y="166.67" as="targetPoint" />
          </mxGeometry>
        </mxCell>
        <mxCell id="5WnQGbEfDsJ_Zrcz6-hq-317" value="Elevador" style="rounded=0;whiteSpace=wrap;html=1;" vertex="1" parent="1">
          <mxGeometry x="2787.5" y="90" width="120" height="60" as="geometry" />
        </mxCell>
        <mxCell id="5WnQGbEfDsJ_Zrcz6-hq-320" value="" style="endArrow=none;dashed=1;html=1;dashPattern=1 3;strokeWidth=2;rounded=0;entryX=0.5;entryY=1;entryDx=0;entryDy=0;startArrow=none;" edge="1" parent="1">
          <mxGeometry width="50" height="50" relative="1" as="geometry">
            <mxPoint x="2845.5" y="436.67" as="sourcePoint" />
            <mxPoint x="2845" y="436.67" as="targetPoint" />
          </mxGeometry>
        </mxCell>
        <mxCell id="5WnQGbEfDsJ_Zrcz6-hq-347" style="edgeStyle=orthogonalEdgeStyle;rounded=0;orthogonalLoop=1;jettySize=auto;html=1;fontSize=12;entryX=1.41;entryY=0.745;entryDx=0;entryDy=0;entryPerimeter=0;" edge="1" parent="1" source="5WnQGbEfDsJ_Zrcz6-hq-321">
          <mxGeometry relative="1" as="geometry">
            <mxPoint x="2544.1" y="284.3000000000002" as="targetPoint" />
            <Array as="points">
              <mxPoint x="2770" y="284" />
              <mxPoint x="2770" y="284" />
            </Array>
          </mxGeometry>
        </mxCell>
        <mxCell id="5WnQGbEfDsJ_Zrcz6-hq-348" value="&lt;span style=&quot;text-align: left; background-color: rgb(248, 249, 250);&quot;&gt;getStatusPerfifericos(sensorPeso)&lt;/span&gt;" style="edgeLabel;html=1;align=center;verticalAlign=middle;resizable=0;points=[];fontSize=12;" vertex="1" connectable="0" parent="5WnQGbEfDsJ_Zrcz6-hq-347">
          <mxGeometry x="0.1147" relative="1" as="geometry">
            <mxPoint as="offset" />
          </mxGeometry>
        </mxCell>
        <mxCell id="5WnQGbEfDsJ_Zrcz6-hq-321" value="" style="points=[];perimeter=orthogonalPerimeter;rounded=0;shadow=0;strokeWidth=1;" vertex="1" parent="1">
          <mxGeometry x="2842.5" y="200" width="10" height="90" as="geometry" />
        </mxCell>
        <mxCell id="5WnQGbEfDsJ_Zrcz6-hq-323" value="Verifica carga maxima" style="text;html=1;resizable=0;autosize=1;align=center;verticalAlign=middle;points=[];fillColor=none;strokeColor=none;rounded=0;fontSize=18;" vertex="1" parent="1">
          <mxGeometry x="2600" y="1.67" width="200" height="40" as="geometry" />
        </mxCell>
        <mxCell id="5WnQGbEfDsJ_Zrcz6-hq-324" value="Periférico" style="shape=umlActor;verticalLabelPosition=bottom;verticalAlign=top;html=1;outlineConnect=0;fontSize=18;" vertex="1" parent="1">
          <mxGeometry x="2520" y="76.67" width="30" height="60" as="geometry" />
        </mxCell>
        <mxCell id="5WnQGbEfDsJ_Zrcz6-hq-165" value="" style="points=[];perimeter=orthogonalPerimeter;rounded=0;shadow=0;strokeWidth=1;" vertex="1" parent="1">
          <mxGeometry x="1820" y="345" width="10" height="10" as="geometry" />
        </mxCell>
        <mxCell id="5WnQGbEfDsJ_Zrcz6-hq-335" value="" style="endArrow=none;dashed=1;html=1;dashPattern=1 3;strokeWidth=2;rounded=0;entryX=0.5;entryY=1;entryDx=0;entryDy=0;startArrow=none;" edge="1" parent="1" target="5WnQGbEfDsJ_Zrcz6-hq-165">
          <mxGeometry width="50" height="50" relative="1" as="geometry">
            <mxPoint x="1825" y="360" as="sourcePoint" />
            <mxPoint x="1825" y="250" as="targetPoint" />
          </mxGeometry>
        </mxCell>
        <mxCell id="5WnQGbEfDsJ_Zrcz6-hq-343" value="" style="endArrow=classic;html=1;rounded=0;fontSize=12;exitX=1.41;exitY=0.147;exitDx=0;exitDy=0;exitPerimeter=0;" edge="1" parent="1">
          <mxGeometry width="50" height="50" relative="1" as="geometry">
            <mxPoint x="2544.1" y="200.57999999999993" as="sourcePoint" />
            <mxPoint x="2840" y="200" as="targetPoint" />
          </mxGeometry>
        </mxCell>
        <mxCell id="5WnQGbEfDsJ_Zrcz6-hq-344" value="&lt;span style=&quot;text-align: left; background-color: rgb(248, 249, 250);&quot;&gt;eventoLimiteCargaExcedido()&lt;/span&gt;" style="edgeLabel;html=1;align=center;verticalAlign=middle;resizable=0;points=[];fontSize=12;" vertex="1" connectable="0" parent="5WnQGbEfDsJ_Zrcz6-hq-343">
          <mxGeometry x="-0.0924" y="2" relative="1" as="geometry">
            <mxPoint as="offset" />
          </mxGeometry>
        </mxCell>
        <mxCell id="5WnQGbEfDsJ_Zrcz6-hq-345" style="edgeStyle=orthogonalEdgeStyle;rounded=0;orthogonalLoop=1;jettySize=auto;html=1;fontSize=12;" edge="1" parent="1">
          <mxGeometry relative="1" as="geometry">
            <mxPoint x="2852.5" y="266.5" as="targetPoint" />
            <mxPoint x="2852.5" y="256.5" as="sourcePoint" />
            <Array as="points">
              <mxPoint x="2852.51" y="240" />
              <mxPoint x="2885.51" y="240" />
              <mxPoint x="2885.51" y="266" />
            </Array>
          </mxGeometry>
        </mxCell>
        <mxCell id="5WnQGbEfDsJ_Zrcz6-hq-346" value="&lt;span style=&quot;color: rgb(0, 0, 0); font-family: Helvetica; font-size: 12px; font-style: normal; font-variant-ligatures: normal; font-variant-caps: normal; font-weight: 400; letter-spacing: normal; orphans: 2; text-align: left; text-indent: 0px; text-transform: none; widows: 2; word-spacing: 0px; -webkit-text-stroke-width: 0px; background-color: rgb(248, 249, 250); text-decoration-thickness: initial; text-decoration-style: initial; text-decoration-color: initial; float: none; display: inline !important;&quot;&gt;limiteCargaExcedidoTrigger()&lt;/span&gt;" style="text;whiteSpace=wrap;html=1;fontSize=12;" vertex="1" parent="1">
          <mxGeometry x="2890" y="240" width="190" height="40" as="geometry" />
        </mxCell>
        <mxCell id="5WnQGbEfDsJ_Zrcz6-hq-349" value="" style="points=[];perimeter=orthogonalPerimeter;rounded=0;shadow=0;strokeWidth=1;" vertex="1" parent="1">
          <mxGeometry x="2530" y="185" width="10" height="30" as="geometry" />
        </mxCell>
        <mxCell id="5WnQGbEfDsJ_Zrcz6-hq-350" value="" style="endArrow=none;dashed=1;html=1;dashPattern=1 3;strokeWidth=2;rounded=0;entryX=0.5;entryY=1;entryDx=0;entryDy=0;startArrow=none;" edge="1" parent="1" source="5WnQGbEfDsJ_Zrcz6-hq-359" target="5WnQGbEfDsJ_Zrcz6-hq-349">
          <mxGeometry width="50" height="50" relative="1" as="geometry">
            <mxPoint x="2535" y="420" as="sourcePoint" />
            <mxPoint x="2535" y="166.67000000000007" as="targetPoint" />
          </mxGeometry>
        </mxCell>
        <mxCell id="5WnQGbEfDsJ_Zrcz6-hq-352" style="edgeStyle=orthogonalEdgeStyle;rounded=0;orthogonalLoop=1;jettySize=auto;html=1;fontSize=12;" edge="1" parent="1">
          <mxGeometry relative="1" as="geometry">
            <mxPoint x="2840" y="323" as="targetPoint" />
            <mxPoint x="2540" y="322.5238095238092" as="sourcePoint" />
            <Array as="points">
              <mxPoint x="2840" y="323" />
            </Array>
          </mxGeometry>
        </mxCell>
        <mxCell id="5WnQGbEfDsJ_Zrcz6-hq-353" value="&lt;span style=&quot;color: rgba(0, 0, 0, 0); font-family: monospace; font-size: 0px; text-align: start; background-color: rgb(248, 249, 250);&quot;&gt;%3CmxGraphModel%3E%3Croot%3E%3CmxCell%20id%3D%220%22%2F%3E%3CmxCell%20id%3D%221%22%20parent%3D%220%22%2F%3E%3CmxCell%20id%3D%222%22%20value%3D%22%22%20style%3D%22points%3D%5B%5D%3Bperimeter%3DorthogonalPerimeter%3Brounded%3D0%3Bshadow%3D0%3BstrokeWidth%3D1%3B%22%20vertex%3D%221%22%20parent%3D%221%22%3E%3CmxGeometry%20x%3D%222530%22%20y%3D%22185%22%20width%3D%2210%22%20height%3D%2230%22%20as%3D%22geometry%22%2F%3E%3C%2FmxCell%3E%3C%2Froot%3E%3C%2FmxGraphModel%3E&lt;/span&gt;&lt;span style=&quot;text-align: left; background-color: rgb(248, 249, 250);&quot;&gt;retornaStatusPeriferico()&lt;/span&gt;" style="edgeLabel;html=1;align=center;verticalAlign=middle;resizable=0;points=[];fontSize=12;" vertex="1" connectable="0" parent="5WnQGbEfDsJ_Zrcz6-hq-352">
          <mxGeometry x="-0.1917" y="-3" relative="1" as="geometry">
            <mxPoint x="9" y="-3" as="offset" />
          </mxGeometry>
        </mxCell>
        <mxCell id="5WnQGbEfDsJ_Zrcz6-hq-354" value="" style="endArrow=classic;html=1;rounded=0;fontSize=12;" edge="1" parent="1">
          <mxGeometry width="50" height="50" relative="1" as="geometry">
            <mxPoint x="2840" y="370" as="sourcePoint" />
            <mxPoint x="2543" y="370" as="targetPoint" />
          </mxGeometry>
        </mxCell>
        <mxCell id="5WnQGbEfDsJ_Zrcz6-hq-359" value="" style="points=[];perimeter=orthogonalPerimeter;rounded=0;shadow=0;strokeWidth=1;" vertex="1" parent="1">
          <mxGeometry x="2530" y="280" width="10" height="55" as="geometry" />
        </mxCell>
        <mxCell id="5WnQGbEfDsJ_Zrcz6-hq-360" value="" style="endArrow=none;dashed=1;html=1;dashPattern=1 3;strokeWidth=2;rounded=0;entryX=0.5;entryY=1;entryDx=0;entryDy=0;startArrow=none;" edge="1" parent="1" source="5WnQGbEfDsJ_Zrcz6-hq-361" target="5WnQGbEfDsJ_Zrcz6-hq-359">
          <mxGeometry width="50" height="50" relative="1" as="geometry">
            <mxPoint x="2535" y="420" as="sourcePoint" />
            <mxPoint x="2535" y="215" as="targetPoint" />
          </mxGeometry>
        </mxCell>
        <mxCell id="5WnQGbEfDsJ_Zrcz6-hq-361" value="" style="points=[];perimeter=orthogonalPerimeter;rounded=0;shadow=0;strokeWidth=1;" vertex="1" parent="1">
          <mxGeometry x="2530" y="370" width="10" height="20" as="geometry" />
        </mxCell>
        <mxCell id="5WnQGbEfDsJ_Zrcz6-hq-362" value="" style="endArrow=none;dashed=1;html=1;dashPattern=1 3;strokeWidth=2;rounded=0;entryX=0.5;entryY=1;entryDx=0;entryDy=0;startArrow=none;" edge="1" parent="1" target="5WnQGbEfDsJ_Zrcz6-hq-361">
          <mxGeometry width="50" height="50" relative="1" as="geometry">
            <mxPoint x="2535" y="420" as="sourcePoint" />
            <mxPoint x="2535" y="335" as="targetPoint" />
          </mxGeometry>
        </mxCell>
        <mxCell id="5WnQGbEfDsJ_Zrcz6-hq-363" value="" style="points=[];perimeter=orthogonalPerimeter;rounded=0;shadow=0;strokeWidth=1;" vertex="1" parent="1">
          <mxGeometry x="2842.5" y="320" width="10" height="50" as="geometry" />
        </mxCell>
        <mxCell id="5WnQGbEfDsJ_Zrcz6-hq-364" value="" style="endArrow=none;dashed=1;html=1;dashPattern=1 3;strokeWidth=2;rounded=0;entryX=0.5;entryY=1;entryDx=0;entryDy=0;startArrow=none;" edge="1" parent="1" target="5WnQGbEfDsJ_Zrcz6-hq-363">
          <mxGeometry width="50" height="50" relative="1" as="geometry">
            <mxPoint x="2850" y="410" as="sourcePoint" />
            <mxPoint x="2847.5" y="330" as="targetPoint" />
          </mxGeometry>
        </mxCell>
        <mxCell id="5WnQGbEfDsJ_Zrcz6-hq-365" value="" style="endArrow=none;dashed=1;html=1;dashPattern=1 3;strokeWidth=2;rounded=0;entryX=0.5;entryY=1;entryDx=0;entryDy=0;startArrow=none;" edge="1" parent="1" source="5WnQGbEfDsJ_Zrcz6-hq-388" target="5WnQGbEfDsJ_Zrcz6-hq-372">
          <mxGeometry width="50" height="50" relative="1" as="geometry">
            <mxPoint x="2868" y="867.0699999999999" as="sourcePoint" />
            <mxPoint x="2865" y="652.0699999999999" as="targetPoint" />
          </mxGeometry>
        </mxCell>
        <mxCell id="5WnQGbEfDsJ_Zrcz6-hq-366" value="" style="endArrow=none;dashed=1;html=1;dashPattern=1 3;strokeWidth=2;rounded=0;entryX=0.5;entryY=1;entryDx=0;entryDy=0;startArrow=none;" edge="1" parent="1" source="5WnQGbEfDsJ_Zrcz6-hq-372" target="5WnQGbEfDsJ_Zrcz6-hq-368">
          <mxGeometry width="50" height="50" relative="1" as="geometry">
            <mxPoint x="2865.5" y="1192.07" as="sourcePoint" />
            <mxPoint x="2875" y="762.0699999999999" as="targetPoint" />
          </mxGeometry>
        </mxCell>
        <mxCell id="5WnQGbEfDsJ_Zrcz6-hq-367" value="" style="endArrow=none;dashed=1;html=1;dashPattern=1 3;strokeWidth=2;rounded=0;entryX=0.5;entryY=1;entryDx=0;entryDy=0;startArrow=none;" edge="1" parent="1" source="5WnQGbEfDsJ_Zrcz6-hq-379">
          <mxGeometry width="50" height="50" relative="1" as="geometry">
            <mxPoint x="2555" y="905.4" as="sourcePoint" />
            <mxPoint x="2555" y="652.0700000000005" as="targetPoint" />
          </mxGeometry>
        </mxCell>
        <mxCell id="5WnQGbEfDsJ_Zrcz6-hq-368" value="Elevador" style="rounded=0;whiteSpace=wrap;html=1;" vertex="1" parent="1">
          <mxGeometry x="2807.5" y="575.4" width="120" height="60" as="geometry" />
        </mxCell>
        <mxCell id="5WnQGbEfDsJ_Zrcz6-hq-369" value="" style="endArrow=none;dashed=1;html=1;dashPattern=1 3;strokeWidth=2;rounded=0;entryX=0.5;entryY=1;entryDx=0;entryDy=0;startArrow=none;" edge="1" parent="1">
          <mxGeometry width="50" height="50" relative="1" as="geometry">
            <mxPoint x="2865.5" y="922.07" as="sourcePoint" />
            <mxPoint x="2865" y="922.07" as="targetPoint" />
          </mxGeometry>
        </mxCell>
        <mxCell id="5WnQGbEfDsJ_Zrcz6-hq-370" style="edgeStyle=orthogonalEdgeStyle;rounded=0;orthogonalLoop=1;jettySize=auto;html=1;fontSize=12;entryX=1.41;entryY=0.745;entryDx=0;entryDy=0;entryPerimeter=0;" edge="1" parent="1" source="5WnQGbEfDsJ_Zrcz6-hq-372">
          <mxGeometry relative="1" as="geometry">
            <mxPoint x="2564.1000000000004" y="769.7000000000002" as="targetPoint" />
            <Array as="points">
              <mxPoint x="2790" y="769.4" />
              <mxPoint x="2790" y="769.4" />
            </Array>
          </mxGeometry>
        </mxCell>
        <mxCell id="5WnQGbEfDsJ_Zrcz6-hq-371" value="&lt;span style=&quot;text-align: left; background-color: rgb(248, 249, 250);&quot;&gt;getStatusPerfifericos(sensorIncendio)&lt;/span&gt;" style="edgeLabel;html=1;align=center;verticalAlign=middle;resizable=0;points=[];fontSize=12;" vertex="1" connectable="0" parent="5WnQGbEfDsJ_Zrcz6-hq-370">
          <mxGeometry x="0.1147" relative="1" as="geometry">
            <mxPoint as="offset" />
          </mxGeometry>
        </mxCell>
        <mxCell id="5WnQGbEfDsJ_Zrcz6-hq-372" value="" style="points=[];perimeter=orthogonalPerimeter;rounded=0;shadow=0;strokeWidth=1;" vertex="1" parent="1">
          <mxGeometry x="2862.5" y="685.4" width="10" height="90" as="geometry" />
        </mxCell>
        <mxCell id="5WnQGbEfDsJ_Zrcz6-hq-373" value="Verifica Incendio" style="text;html=1;resizable=0;autosize=1;align=center;verticalAlign=middle;points=[];fillColor=none;strokeColor=none;rounded=0;fontSize=18;" vertex="1" parent="1">
          <mxGeometry x="2640" y="487.06999999999994" width="160" height="40" as="geometry" />
        </mxCell>
        <mxCell id="5WnQGbEfDsJ_Zrcz6-hq-374" value="Periférico" style="shape=umlActor;verticalLabelPosition=bottom;verticalAlign=top;html=1;outlineConnect=0;fontSize=18;" vertex="1" parent="1">
          <mxGeometry x="2540" y="562.0699999999999" width="30" height="60" as="geometry" />
        </mxCell>
        <mxCell id="5WnQGbEfDsJ_Zrcz6-hq-375" value="" style="endArrow=classic;html=1;rounded=0;fontSize=12;exitX=1.41;exitY=0.147;exitDx=0;exitDy=0;exitPerimeter=0;" edge="1" parent="1">
          <mxGeometry width="50" height="50" relative="1" as="geometry">
            <mxPoint x="2564.1000000000004" y="685.9799999999999" as="sourcePoint" />
            <mxPoint x="2860" y="685.4" as="targetPoint" />
          </mxGeometry>
        </mxCell>
        <mxCell id="5WnQGbEfDsJ_Zrcz6-hq-376" value="&lt;span style=&quot;text-align: left; background-color: rgb(248, 249, 250);&quot;&gt;eventoSensorIncendioAtivo()&lt;/span&gt;" style="edgeLabel;html=1;align=center;verticalAlign=middle;resizable=0;points=[];fontSize=12;" vertex="1" connectable="0" parent="5WnQGbEfDsJ_Zrcz6-hq-375">
          <mxGeometry x="-0.0924" y="2" relative="1" as="geometry">
            <mxPoint as="offset" />
          </mxGeometry>
        </mxCell>
        <mxCell id="5WnQGbEfDsJ_Zrcz6-hq-377" style="edgeStyle=orthogonalEdgeStyle;rounded=0;orthogonalLoop=1;jettySize=auto;html=1;fontSize=12;" edge="1" parent="1">
          <mxGeometry relative="1" as="geometry">
            <mxPoint x="2872.5" y="751.9" as="targetPoint" />
            <mxPoint x="2872.5" y="741.9" as="sourcePoint" />
            <Array as="points">
              <mxPoint x="2872.51" y="725.4" />
              <mxPoint x="2905.51" y="725.4" />
              <mxPoint x="2905.51" y="751.4" />
            </Array>
          </mxGeometry>
        </mxCell>
        <mxCell id="5WnQGbEfDsJ_Zrcz6-hq-378" value="&lt;span style=&quot;&quot;&gt;sensorIncendioTrigger()&lt;/span&gt;" style="text;whiteSpace=wrap;html=1;fontSize=12;" vertex="1" parent="1">
          <mxGeometry x="2910" y="725.4" width="190" height="40" as="geometry" />
        </mxCell>
        <mxCell id="5WnQGbEfDsJ_Zrcz6-hq-379" value="" style="points=[];perimeter=orthogonalPerimeter;rounded=0;shadow=0;strokeWidth=1;" vertex="1" parent="1">
          <mxGeometry x="2550" y="670.4" width="10" height="30" as="geometry" />
        </mxCell>
        <mxCell id="5WnQGbEfDsJ_Zrcz6-hq-380" value="" style="endArrow=none;dashed=1;html=1;dashPattern=1 3;strokeWidth=2;rounded=0;entryX=0.5;entryY=1;entryDx=0;entryDy=0;startArrow=none;" edge="1" parent="1" source="5WnQGbEfDsJ_Zrcz6-hq-384" target="5WnQGbEfDsJ_Zrcz6-hq-379">
          <mxGeometry width="50" height="50" relative="1" as="geometry">
            <mxPoint x="2555" y="905.4" as="sourcePoint" />
            <mxPoint x="2555" y="652.07" as="targetPoint" />
          </mxGeometry>
        </mxCell>
        <mxCell id="5WnQGbEfDsJ_Zrcz6-hq-381" style="edgeStyle=orthogonalEdgeStyle;rounded=0;orthogonalLoop=1;jettySize=auto;html=1;fontSize=12;" edge="1" parent="1">
          <mxGeometry relative="1" as="geometry">
            <mxPoint x="2860" y="808.4" as="targetPoint" />
            <mxPoint x="2560" y="807.9238095238092" as="sourcePoint" />
            <Array as="points">
              <mxPoint x="2860" y="808.4" />
            </Array>
          </mxGeometry>
        </mxCell>
        <mxCell id="5WnQGbEfDsJ_Zrcz6-hq-382" value="&lt;span style=&quot;color: rgba(0, 0, 0, 0); font-family: monospace; font-size: 0px; text-align: start; background-color: rgb(248, 249, 250);&quot;&gt;%3CmxGraphModel%3E%3Croot%3E%3CmxCell%20id%3D%220%22%2F%3E%3CmxCell%20id%3D%221%22%20parent%3D%220%22%2F%3E%3CmxCell%20id%3D%222%22%20value%3D%22%22%20style%3D%22points%3D%5B%5D%3Bperimeter%3DorthogonalPerimeter%3Brounded%3D0%3Bshadow%3D0%3BstrokeWidth%3D1%3B%22%20vertex%3D%221%22%20parent%3D%221%22%3E%3CmxGeometry%20x%3D%222530%22%20y%3D%22185%22%20width%3D%2210%22%20height%3D%2230%22%20as%3D%22geometry%22%2F%3E%3C%2FmxCell%3E%3C%2Froot%3E%3C%2FmxGraphModel%3E&lt;/span&gt;&lt;span style=&quot;text-align: left; background-color: rgb(248, 249, 250);&quot;&gt;retornaStatusPeriferico()&lt;/span&gt;" style="edgeLabel;html=1;align=center;verticalAlign=middle;resizable=0;points=[];fontSize=12;" vertex="1" connectable="0" parent="5WnQGbEfDsJ_Zrcz6-hq-381">
          <mxGeometry x="-0.1917" y="-3" relative="1" as="geometry">
            <mxPoint x="9" y="-3" as="offset" />
          </mxGeometry>
        </mxCell>
        <mxCell id="5WnQGbEfDsJ_Zrcz6-hq-383" value="" style="endArrow=classic;html=1;rounded=0;fontSize=12;" edge="1" parent="1">
          <mxGeometry width="50" height="50" relative="1" as="geometry">
            <mxPoint x="2860" y="855.4" as="sourcePoint" />
            <mxPoint x="2563" y="855.4" as="targetPoint" />
          </mxGeometry>
        </mxCell>
        <mxCell id="5WnQGbEfDsJ_Zrcz6-hq-384" value="" style="points=[];perimeter=orthogonalPerimeter;rounded=0;shadow=0;strokeWidth=1;" vertex="1" parent="1">
          <mxGeometry x="2550" y="765.4" width="10" height="55" as="geometry" />
        </mxCell>
        <mxCell id="5WnQGbEfDsJ_Zrcz6-hq-385" value="" style="endArrow=none;dashed=1;html=1;dashPattern=1 3;strokeWidth=2;rounded=0;entryX=0.5;entryY=1;entryDx=0;entryDy=0;startArrow=none;" edge="1" parent="1" source="5WnQGbEfDsJ_Zrcz6-hq-386" target="5WnQGbEfDsJ_Zrcz6-hq-384">
          <mxGeometry width="50" height="50" relative="1" as="geometry">
            <mxPoint x="2555" y="905.4" as="sourcePoint" />
            <mxPoint x="2555" y="700.4" as="targetPoint" />
          </mxGeometry>
        </mxCell>
        <mxCell id="5WnQGbEfDsJ_Zrcz6-hq-386" value="" style="points=[];perimeter=orthogonalPerimeter;rounded=0;shadow=0;strokeWidth=1;" vertex="1" parent="1">
          <mxGeometry x="2550" y="855.4" width="10" height="20" as="geometry" />
        </mxCell>
        <mxCell id="5WnQGbEfDsJ_Zrcz6-hq-387" value="" style="endArrow=none;dashed=1;html=1;dashPattern=1 3;strokeWidth=2;rounded=0;entryX=0.5;entryY=1;entryDx=0;entryDy=0;startArrow=none;" edge="1" parent="1" target="5WnQGbEfDsJ_Zrcz6-hq-386">
          <mxGeometry width="50" height="50" relative="1" as="geometry">
            <mxPoint x="2555" y="905.4" as="sourcePoint" />
            <mxPoint x="2555" y="820.4" as="targetPoint" />
          </mxGeometry>
        </mxCell>
        <mxCell id="5WnQGbEfDsJ_Zrcz6-hq-388" value="" style="points=[];perimeter=orthogonalPerimeter;rounded=0;shadow=0;strokeWidth=1;" vertex="1" parent="1">
          <mxGeometry x="2862.5" y="805.4" width="10" height="50" as="geometry" />
        </mxCell>
        <mxCell id="5WnQGbEfDsJ_Zrcz6-hq-389" value="" style="endArrow=none;dashed=1;html=1;dashPattern=1 3;strokeWidth=2;rounded=0;entryX=0.5;entryY=1;entryDx=0;entryDy=0;startArrow=none;" edge="1" parent="1" target="5WnQGbEfDsJ_Zrcz6-hq-388">
          <mxGeometry width="50" height="50" relative="1" as="geometry">
            <mxPoint x="2870" y="895.4" as="sourcePoint" />
            <mxPoint x="2867.5" y="815.4" as="targetPoint" />
          </mxGeometry>
        </mxCell>
        <mxCell id="5WnQGbEfDsJ_Zrcz6-hq-390" value="" style="endArrow=none;dashed=1;html=1;dashPattern=1 3;strokeWidth=2;rounded=0;entryX=0.5;entryY=1;entryDx=0;entryDy=0;startArrow=none;" edge="1" parent="1" source="5WnQGbEfDsJ_Zrcz6-hq-412" target="5WnQGbEfDsJ_Zrcz6-hq-397">
          <mxGeometry width="50" height="50" relative="1" as="geometry">
            <mxPoint x="2878" y="1320" as="sourcePoint" />
            <mxPoint x="2875" y="1105" as="targetPoint" />
          </mxGeometry>
        </mxCell>
        <mxCell id="5WnQGbEfDsJ_Zrcz6-hq-391" value="" style="endArrow=none;dashed=1;html=1;dashPattern=1 3;strokeWidth=2;rounded=0;entryX=0.5;entryY=1;entryDx=0;entryDy=0;startArrow=none;" edge="1" parent="1" source="5WnQGbEfDsJ_Zrcz6-hq-397" target="5WnQGbEfDsJ_Zrcz6-hq-393">
          <mxGeometry width="50" height="50" relative="1" as="geometry">
            <mxPoint x="2875.5" y="1645" as="sourcePoint" />
            <mxPoint x="2885" y="1215" as="targetPoint" />
          </mxGeometry>
        </mxCell>
        <mxCell id="5WnQGbEfDsJ_Zrcz6-hq-392" value="" style="endArrow=none;dashed=1;html=1;dashPattern=1 3;strokeWidth=2;rounded=0;entryX=0.5;entryY=1;entryDx=0;entryDy=0;startArrow=none;" edge="1" parent="1" source="5WnQGbEfDsJ_Zrcz6-hq-403">
          <mxGeometry width="50" height="50" relative="1" as="geometry">
            <mxPoint x="2565" y="1358.33" as="sourcePoint" />
            <mxPoint x="2564.9999999999995" y="1105.0000000000007" as="targetPoint" />
          </mxGeometry>
        </mxCell>
        <mxCell id="5WnQGbEfDsJ_Zrcz6-hq-393" value="Elevador" style="rounded=0;whiteSpace=wrap;html=1;" vertex="1" parent="1">
          <mxGeometry x="2817.5" y="1028.33" width="120" height="60" as="geometry" />
        </mxCell>
        <mxCell id="5WnQGbEfDsJ_Zrcz6-hq-394" value="" style="endArrow=none;dashed=1;html=1;dashPattern=1 3;strokeWidth=2;rounded=0;entryX=0.5;entryY=1;entryDx=0;entryDy=0;startArrow=none;" edge="1" parent="1">
          <mxGeometry width="50" height="50" relative="1" as="geometry">
            <mxPoint x="2875.5" y="1375.0000000000002" as="sourcePoint" />
            <mxPoint x="2875" y="1375.0000000000002" as="targetPoint" />
          </mxGeometry>
        </mxCell>
        <mxCell id="5WnQGbEfDsJ_Zrcz6-hq-395" style="edgeStyle=orthogonalEdgeStyle;rounded=0;orthogonalLoop=1;jettySize=auto;html=1;fontSize=12;entryX=1.41;entryY=0.745;entryDx=0;entryDy=0;entryPerimeter=0;" edge="1" parent="1" source="5WnQGbEfDsJ_Zrcz6-hq-397">
          <mxGeometry relative="1" as="geometry">
            <mxPoint x="2574.1000000000004" y="1222.6300000000003" as="targetPoint" />
            <Array as="points">
              <mxPoint x="2800" y="1222.33" />
              <mxPoint x="2800" y="1222.33" />
            </Array>
          </mxGeometry>
        </mxCell>
        <mxCell id="5WnQGbEfDsJ_Zrcz6-hq-396" value="&lt;span style=&quot;text-align: left; background-color: rgb(248, 249, 250);&quot;&gt;getStatusPerfifericos(sensorEmergencia)&lt;/span&gt;" style="edgeLabel;html=1;align=center;verticalAlign=middle;resizable=0;points=[];fontSize=12;" vertex="1" connectable="0" parent="5WnQGbEfDsJ_Zrcz6-hq-395">
          <mxGeometry x="0.1147" relative="1" as="geometry">
            <mxPoint as="offset" />
          </mxGeometry>
        </mxCell>
        <mxCell id="5WnQGbEfDsJ_Zrcz6-hq-397" value="" style="points=[];perimeter=orthogonalPerimeter;rounded=0;shadow=0;strokeWidth=1;" vertex="1" parent="1">
          <mxGeometry x="2872.5" y="1138.33" width="10" height="90" as="geometry" />
        </mxCell>
        <mxCell id="5WnQGbEfDsJ_Zrcz6-hq-398" value="Verifica Emergencia" style="text;html=1;resizable=0;autosize=1;align=center;verticalAlign=middle;points=[];fillColor=none;strokeColor=none;rounded=0;fontSize=18;" vertex="1" parent="1">
          <mxGeometry x="2640" y="940" width="180" height="40" as="geometry" />
        </mxCell>
        <mxCell id="5WnQGbEfDsJ_Zrcz6-hq-399" value="Periférico" style="shape=umlActor;verticalLabelPosition=bottom;verticalAlign=top;html=1;outlineConnect=0;fontSize=18;" vertex="1" parent="1">
          <mxGeometry x="2550" y="1015" width="30" height="60" as="geometry" />
        </mxCell>
        <mxCell id="5WnQGbEfDsJ_Zrcz6-hq-400" value="" style="endArrow=classic;html=1;rounded=0;fontSize=12;exitX=1.41;exitY=0.147;exitDx=0;exitDy=0;exitPerimeter=0;" edge="1" parent="1">
          <mxGeometry width="50" height="50" relative="1" as="geometry">
            <mxPoint x="2574.1000000000004" y="1138.91" as="sourcePoint" />
            <mxPoint x="2870" y="1138.3300000000002" as="targetPoint" />
          </mxGeometry>
        </mxCell>
        <mxCell id="5WnQGbEfDsJ_Zrcz6-hq-401" value="&lt;span style=&quot;text-align: left; background-color: rgb(248, 249, 250);&quot;&gt;eventoEmergenciaAtivo()&lt;/span&gt;" style="edgeLabel;html=1;align=center;verticalAlign=middle;resizable=0;points=[];fontSize=12;" vertex="1" connectable="0" parent="5WnQGbEfDsJ_Zrcz6-hq-400">
          <mxGeometry x="-0.0924" y="2" relative="1" as="geometry">
            <mxPoint as="offset" />
          </mxGeometry>
        </mxCell>
        <mxCell id="5WnQGbEfDsJ_Zrcz6-hq-402" style="edgeStyle=orthogonalEdgeStyle;rounded=0;orthogonalLoop=1;jettySize=auto;html=1;fontSize=12;" edge="1" parent="1">
          <mxGeometry relative="1" as="geometry">
            <mxPoint x="2882.5" y="1204.8300000000002" as="targetPoint" />
            <mxPoint x="2882.5" y="1194.8300000000002" as="sourcePoint" />
            <Array as="points">
              <mxPoint x="2882.51" y="1178.33" />
              <mxPoint x="2915.51" y="1178.33" />
              <mxPoint x="2915.51" y="1204.33" />
            </Array>
          </mxGeometry>
        </mxCell>
        <mxCell id="5WnQGbEfDsJ_Zrcz6-hq-403" value="" style="points=[];perimeter=orthogonalPerimeter;rounded=0;shadow=0;strokeWidth=1;" vertex="1" parent="1">
          <mxGeometry x="2560" y="1123.33" width="10" height="30" as="geometry" />
        </mxCell>
        <mxCell id="5WnQGbEfDsJ_Zrcz6-hq-404" value="" style="endArrow=none;dashed=1;html=1;dashPattern=1 3;strokeWidth=2;rounded=0;entryX=0.5;entryY=1;entryDx=0;entryDy=0;startArrow=none;" edge="1" parent="1" source="5WnQGbEfDsJ_Zrcz6-hq-408" target="5WnQGbEfDsJ_Zrcz6-hq-403">
          <mxGeometry width="50" height="50" relative="1" as="geometry">
            <mxPoint x="2565" y="1358.33" as="sourcePoint" />
            <mxPoint x="2565" y="1105" as="targetPoint" />
          </mxGeometry>
        </mxCell>
        <mxCell id="5WnQGbEfDsJ_Zrcz6-hq-405" style="edgeStyle=orthogonalEdgeStyle;rounded=0;orthogonalLoop=1;jettySize=auto;html=1;fontSize=12;" edge="1" parent="1">
          <mxGeometry relative="1" as="geometry">
            <mxPoint x="2870" y="1261.3300000000002" as="targetPoint" />
            <mxPoint x="2569.9999999999995" y="1260.8538095238093" as="sourcePoint" />
            <Array as="points">
              <mxPoint x="2870" y="1261.33" />
            </Array>
          </mxGeometry>
        </mxCell>
        <mxCell id="5WnQGbEfDsJ_Zrcz6-hq-406" value="&lt;span style=&quot;color: rgba(0, 0, 0, 0); font-family: monospace; font-size: 0px; text-align: start; background-color: rgb(248, 249, 250);&quot;&gt;%3CmxGraphModel%3E%3Croot%3E%3CmxCell%20id%3D%220%22%2F%3E%3CmxCell%20id%3D%221%22%20parent%3D%220%22%2F%3E%3CmxCell%20id%3D%222%22%20value%3D%22%22%20style%3D%22points%3D%5B%5D%3Bperimeter%3DorthogonalPerimeter%3Brounded%3D0%3Bshadow%3D0%3BstrokeWidth%3D1%3B%22%20vertex%3D%221%22%20parent%3D%221%22%3E%3CmxGeometry%20x%3D%222530%22%20y%3D%22185%22%20width%3D%2210%22%20height%3D%2230%22%20as%3D%22geometry%22%2F%3E%3C%2FmxCell%3E%3C%2Froot%3E%3C%2FmxGraphModel%3E&lt;/span&gt;&lt;span style=&quot;text-align: left; background-color: rgb(248, 249, 250);&quot;&gt;retornaStatusPeriferico()&lt;/span&gt;" style="edgeLabel;html=1;align=center;verticalAlign=middle;resizable=0;points=[];fontSize=12;" vertex="1" connectable="0" parent="5WnQGbEfDsJ_Zrcz6-hq-405">
          <mxGeometry x="-0.1917" y="-3" relative="1" as="geometry">
            <mxPoint x="9" y="-3" as="offset" />
          </mxGeometry>
        </mxCell>
        <mxCell id="5WnQGbEfDsJ_Zrcz6-hq-407" value="" style="endArrow=classic;html=1;rounded=0;fontSize=12;" edge="1" parent="1">
          <mxGeometry width="50" height="50" relative="1" as="geometry">
            <mxPoint x="2870" y="1308.3300000000002" as="sourcePoint" />
            <mxPoint x="2573.0000000000005" y="1308.3300000000002" as="targetPoint" />
          </mxGeometry>
        </mxCell>
        <mxCell id="5WnQGbEfDsJ_Zrcz6-hq-408" value="" style="points=[];perimeter=orthogonalPerimeter;rounded=0;shadow=0;strokeWidth=1;" vertex="1" parent="1">
          <mxGeometry x="2560" y="1218.33" width="10" height="55" as="geometry" />
        </mxCell>
        <mxCell id="5WnQGbEfDsJ_Zrcz6-hq-409" value="" style="endArrow=none;dashed=1;html=1;dashPattern=1 3;strokeWidth=2;rounded=0;entryX=0.5;entryY=1;entryDx=0;entryDy=0;startArrow=none;" edge="1" parent="1" source="5WnQGbEfDsJ_Zrcz6-hq-410" target="5WnQGbEfDsJ_Zrcz6-hq-408">
          <mxGeometry width="50" height="50" relative="1" as="geometry">
            <mxPoint x="2565" y="1358.33" as="sourcePoint" />
            <mxPoint x="2565" y="1153.33" as="targetPoint" />
          </mxGeometry>
        </mxCell>
        <mxCell id="5WnQGbEfDsJ_Zrcz6-hq-410" value="" style="points=[];perimeter=orthogonalPerimeter;rounded=0;shadow=0;strokeWidth=1;" vertex="1" parent="1">
          <mxGeometry x="2560" y="1308.33" width="10" height="20" as="geometry" />
        </mxCell>
        <mxCell id="5WnQGbEfDsJ_Zrcz6-hq-411" value="" style="endArrow=none;dashed=1;html=1;dashPattern=1 3;strokeWidth=2;rounded=0;entryX=0.5;entryY=1;entryDx=0;entryDy=0;startArrow=none;" edge="1" parent="1" target="5WnQGbEfDsJ_Zrcz6-hq-410">
          <mxGeometry width="50" height="50" relative="1" as="geometry">
            <mxPoint x="2564.9999999999995" y="1358.3300000000002" as="sourcePoint" />
            <mxPoint x="2565" y="1273.33" as="targetPoint" />
          </mxGeometry>
        </mxCell>
        <mxCell id="5WnQGbEfDsJ_Zrcz6-hq-412" value="" style="points=[];perimeter=orthogonalPerimeter;rounded=0;shadow=0;strokeWidth=1;" vertex="1" parent="1">
          <mxGeometry x="2872.5" y="1258.33" width="10" height="50" as="geometry" />
        </mxCell>
        <mxCell id="5WnQGbEfDsJ_Zrcz6-hq-413" value="" style="endArrow=none;dashed=1;html=1;dashPattern=1 3;strokeWidth=2;rounded=0;entryX=0.5;entryY=1;entryDx=0;entryDy=0;startArrow=none;" edge="1" parent="1" target="5WnQGbEfDsJ_Zrcz6-hq-412">
          <mxGeometry width="50" height="50" relative="1" as="geometry">
            <mxPoint x="2880" y="1348.3300000000002" as="sourcePoint" />
            <mxPoint x="2877.5" y="1268.33" as="targetPoint" />
          </mxGeometry>
        </mxCell>
        <mxCell id="5WnQGbEfDsJ_Zrcz6-hq-414" value="&lt;span style=&quot;color: rgb(0, 0, 0); font-family: Helvetica; font-size: 12px; font-style: normal; font-variant-ligatures: normal; font-variant-caps: normal; font-weight: 400; letter-spacing: normal; orphans: 2; text-align: left; text-indent: 0px; text-transform: none; widows: 2; word-spacing: 0px; -webkit-text-stroke-width: 0px; background-color: rgb(248, 249, 250); text-decoration-thickness: initial; text-decoration-style: initial; text-decoration-color: initial; float: none; display: inline !important;&quot;&gt;eventoEmergenciaTrigger()&lt;/span&gt;" style="text;whiteSpace=wrap;html=1;fontSize=12;" vertex="1" parent="1">
          <mxGeometry x="2920" y="1178.33" width="180" height="40" as="geometry" />
        </mxCell>
        <mxCell id="5WnQGbEfDsJ_Zrcz6-hq-415" value="" style="endArrow=none;dashed=1;html=1;dashPattern=1 3;strokeWidth=2;rounded=0;entryX=0.5;entryY=1;entryDx=0;entryDy=0;startArrow=none;" edge="1" parent="1" source="5WnQGbEfDsJ_Zrcz6-hq-437" target="5WnQGbEfDsJ_Zrcz6-hq-422">
          <mxGeometry width="50" height="50" relative="1" as="geometry">
            <mxPoint x="2878" y="1812" as="sourcePoint" />
            <mxPoint x="2875" y="1597" as="targetPoint" />
          </mxGeometry>
        </mxCell>
        <mxCell id="5WnQGbEfDsJ_Zrcz6-hq-416" value="" style="endArrow=none;dashed=1;html=1;dashPattern=1 3;strokeWidth=2;rounded=0;entryX=0.5;entryY=1;entryDx=0;entryDy=0;startArrow=none;" edge="1" parent="1" source="5WnQGbEfDsJ_Zrcz6-hq-422" target="5WnQGbEfDsJ_Zrcz6-hq-418">
          <mxGeometry width="50" height="50" relative="1" as="geometry">
            <mxPoint x="2875.5" y="2137" as="sourcePoint" />
            <mxPoint x="2885" y="1707" as="targetPoint" />
          </mxGeometry>
        </mxCell>
        <mxCell id="5WnQGbEfDsJ_Zrcz6-hq-417" value="" style="endArrow=none;dashed=1;html=1;dashPattern=1 3;strokeWidth=2;rounded=0;entryX=0.5;entryY=1;entryDx=0;entryDy=0;startArrow=none;" edge="1" parent="1" source="5WnQGbEfDsJ_Zrcz6-hq-428">
          <mxGeometry width="50" height="50" relative="1" as="geometry">
            <mxPoint x="2565" y="1850.33" as="sourcePoint" />
            <mxPoint x="2565" y="1597.0000000000014" as="targetPoint" />
          </mxGeometry>
        </mxCell>
        <mxCell id="5WnQGbEfDsJ_Zrcz6-hq-418" value="Elevador" style="rounded=0;whiteSpace=wrap;html=1;" vertex="1" parent="1">
          <mxGeometry x="2817.5" y="1520.33" width="120" height="60" as="geometry" />
        </mxCell>
        <mxCell id="5WnQGbEfDsJ_Zrcz6-hq-419" value="" style="endArrow=none;dashed=1;html=1;dashPattern=1 3;strokeWidth=2;rounded=0;entryX=0.5;entryY=1;entryDx=0;entryDy=0;startArrow=none;" edge="1" parent="1">
          <mxGeometry width="50" height="50" relative="1" as="geometry">
            <mxPoint x="2875.5" y="1866.9999999999995" as="sourcePoint" />
            <mxPoint x="2875" y="1866.9999999999995" as="targetPoint" />
          </mxGeometry>
        </mxCell>
        <mxCell id="5WnQGbEfDsJ_Zrcz6-hq-420" style="edgeStyle=orthogonalEdgeStyle;rounded=0;orthogonalLoop=1;jettySize=auto;html=1;fontSize=12;entryX=1.41;entryY=0.745;entryDx=0;entryDy=0;entryPerimeter=0;" edge="1" parent="1" source="5WnQGbEfDsJ_Zrcz6-hq-422">
          <mxGeometry relative="1" as="geometry">
            <mxPoint x="2574.1000000000004" y="1714.6300000000006" as="targetPoint" />
            <Array as="points">
              <mxPoint x="2800" y="1714.33" />
              <mxPoint x="2800" y="1714.33" />
            </Array>
          </mxGeometry>
        </mxCell>
        <mxCell id="5WnQGbEfDsJ_Zrcz6-hq-421" value="&lt;span style=&quot;text-align: left; background-color: rgb(248, 249, 250);&quot;&gt;getStatusPerfifericos(eventoCamera)&lt;/span&gt;" style="edgeLabel;html=1;align=center;verticalAlign=middle;resizable=0;points=[];fontSize=12;" vertex="1" connectable="0" parent="5WnQGbEfDsJ_Zrcz6-hq-420">
          <mxGeometry x="0.1147" relative="1" as="geometry">
            <mxPoint as="offset" />
          </mxGeometry>
        </mxCell>
        <mxCell id="5WnQGbEfDsJ_Zrcz6-hq-422" value="" style="points=[];perimeter=orthogonalPerimeter;rounded=0;shadow=0;strokeWidth=1;" vertex="1" parent="1">
          <mxGeometry x="2872.5" y="1630.33" width="10" height="90" as="geometry" />
        </mxCell>
        <mxCell id="5WnQGbEfDsJ_Zrcz6-hq-423" value="Verifica camera interna" style="text;html=1;resizable=0;autosize=1;align=center;verticalAlign=middle;points=[];fillColor=none;strokeColor=none;rounded=0;fontSize=18;" vertex="1" parent="1">
          <mxGeometry x="2605" y="1460" width="210" height="40" as="geometry" />
        </mxCell>
        <mxCell id="5WnQGbEfDsJ_Zrcz6-hq-424" value="Periférico" style="shape=umlActor;verticalLabelPosition=bottom;verticalAlign=top;html=1;outlineConnect=0;fontSize=18;" vertex="1" parent="1">
          <mxGeometry x="2550" y="1507" width="30" height="60" as="geometry" />
        </mxCell>
        <mxCell id="5WnQGbEfDsJ_Zrcz6-hq-425" value="" style="endArrow=classic;html=1;rounded=0;fontSize=12;exitX=1.41;exitY=0.147;exitDx=0;exitDy=0;exitPerimeter=0;" edge="1" parent="1">
          <mxGeometry width="50" height="50" relative="1" as="geometry">
            <mxPoint x="2574.1000000000004" y="1630.9100000000003" as="sourcePoint" />
            <mxPoint x="2870" y="1630.3300000000004" as="targetPoint" />
          </mxGeometry>
        </mxCell>
        <mxCell id="5WnQGbEfDsJ_Zrcz6-hq-426" value="&lt;span style=&quot;text-align: left; background-color: rgb(248, 249, 250);&quot;&gt;eventoCameraAtivo()&lt;/span&gt;" style="edgeLabel;html=1;align=center;verticalAlign=middle;resizable=0;points=[];fontSize=12;" vertex="1" connectable="0" parent="5WnQGbEfDsJ_Zrcz6-hq-425">
          <mxGeometry x="-0.0924" y="2" relative="1" as="geometry">
            <mxPoint as="offset" />
          </mxGeometry>
        </mxCell>
        <mxCell id="5WnQGbEfDsJ_Zrcz6-hq-428" value="" style="points=[];perimeter=orthogonalPerimeter;rounded=0;shadow=0;strokeWidth=1;" vertex="1" parent="1">
          <mxGeometry x="2560" y="1615.33" width="10" height="30" as="geometry" />
        </mxCell>
        <mxCell id="5WnQGbEfDsJ_Zrcz6-hq-429" value="" style="endArrow=none;dashed=1;html=1;dashPattern=1 3;strokeWidth=2;rounded=0;entryX=0.5;entryY=1;entryDx=0;entryDy=0;startArrow=none;" edge="1" parent="1" source="5WnQGbEfDsJ_Zrcz6-hq-433" target="5WnQGbEfDsJ_Zrcz6-hq-428">
          <mxGeometry width="50" height="50" relative="1" as="geometry">
            <mxPoint x="2565" y="1850.33" as="sourcePoint" />
            <mxPoint x="2565" y="1597" as="targetPoint" />
          </mxGeometry>
        </mxCell>
        <mxCell id="5WnQGbEfDsJ_Zrcz6-hq-430" style="edgeStyle=orthogonalEdgeStyle;rounded=0;orthogonalLoop=1;jettySize=auto;html=1;fontSize=12;" edge="1" parent="1">
          <mxGeometry relative="1" as="geometry">
            <mxPoint x="2870" y="1753.33" as="targetPoint" />
            <mxPoint x="2570" y="1752.8538095238096" as="sourcePoint" />
            <Array as="points">
              <mxPoint x="2870" y="1753.33" />
            </Array>
          </mxGeometry>
        </mxCell>
        <mxCell id="5WnQGbEfDsJ_Zrcz6-hq-431" value="&lt;span style=&quot;color: rgba(0, 0, 0, 0); font-family: monospace; font-size: 0px; text-align: start; background-color: rgb(248, 249, 250);&quot;&gt;%3CmxGraphModel%3E%3Croot%3E%3CmxCell%20id%3D%220%22%2F%3E%3CmxCell%20id%3D%221%22%20parent%3D%220%22%2F%3E%3CmxCell%20id%3D%222%22%20value%3D%22%22%20style%3D%22points%3D%5B%5D%3Bperimeter%3DorthogonalPerimeter%3Brounded%3D0%3Bshadow%3D0%3BstrokeWidth%3D1%3B%22%20vertex%3D%221%22%20parent%3D%221%22%3E%3CmxGeometry%20x%3D%222530%22%20y%3D%22185%22%20width%3D%2210%22%20height%3D%2230%22%20as%3D%22geometry%22%2F%3E%3C%2FmxCell%3E%3C%2Froot%3E%3C%2FmxGraphModel%3E&lt;/span&gt;&lt;span style=&quot;text-align: left; background-color: rgb(248, 249, 250);&quot;&gt;retornaStatusPeriferico()&lt;/span&gt;" style="edgeLabel;html=1;align=center;verticalAlign=middle;resizable=0;points=[];fontSize=12;" vertex="1" connectable="0" parent="5WnQGbEfDsJ_Zrcz6-hq-430">
          <mxGeometry x="-0.1917" y="-3" relative="1" as="geometry">
            <mxPoint x="9" y="-3" as="offset" />
          </mxGeometry>
        </mxCell>
        <mxCell id="5WnQGbEfDsJ_Zrcz6-hq-432" value="" style="endArrow=classic;html=1;rounded=0;fontSize=12;" edge="1" parent="1">
          <mxGeometry width="50" height="50" relative="1" as="geometry">
            <mxPoint x="2870" y="1800.3300000000004" as="sourcePoint" />
            <mxPoint x="2573" y="1800.3300000000004" as="targetPoint" />
          </mxGeometry>
        </mxCell>
        <mxCell id="5WnQGbEfDsJ_Zrcz6-hq-433" value="" style="points=[];perimeter=orthogonalPerimeter;rounded=0;shadow=0;strokeWidth=1;" vertex="1" parent="1">
          <mxGeometry x="2560" y="1710.33" width="10" height="55" as="geometry" />
        </mxCell>
        <mxCell id="5WnQGbEfDsJ_Zrcz6-hq-434" value="" style="endArrow=none;dashed=1;html=1;dashPattern=1 3;strokeWidth=2;rounded=0;entryX=0.5;entryY=1;entryDx=0;entryDy=0;startArrow=none;" edge="1" parent="1" source="5WnQGbEfDsJ_Zrcz6-hq-435" target="5WnQGbEfDsJ_Zrcz6-hq-433">
          <mxGeometry width="50" height="50" relative="1" as="geometry">
            <mxPoint x="2565" y="1850.33" as="sourcePoint" />
            <mxPoint x="2565" y="1645.33" as="targetPoint" />
          </mxGeometry>
        </mxCell>
        <mxCell id="5WnQGbEfDsJ_Zrcz6-hq-435" value="" style="points=[];perimeter=orthogonalPerimeter;rounded=0;shadow=0;strokeWidth=1;" vertex="1" parent="1">
          <mxGeometry x="2560" y="1800.33" width="10" height="20" as="geometry" />
        </mxCell>
        <mxCell id="5WnQGbEfDsJ_Zrcz6-hq-436" value="" style="endArrow=none;dashed=1;html=1;dashPattern=1 3;strokeWidth=2;rounded=0;entryX=0.5;entryY=1;entryDx=0;entryDy=0;startArrow=none;" edge="1" parent="1" target="5WnQGbEfDsJ_Zrcz6-hq-435">
          <mxGeometry width="50" height="50" relative="1" as="geometry">
            <mxPoint x="2565" y="1850.3300000000004" as="sourcePoint" />
            <mxPoint x="2565" y="1765.33" as="targetPoint" />
          </mxGeometry>
        </mxCell>
        <mxCell id="5WnQGbEfDsJ_Zrcz6-hq-437" value="" style="points=[];perimeter=orthogonalPerimeter;rounded=0;shadow=0;strokeWidth=1;" vertex="1" parent="1">
          <mxGeometry x="2872.5" y="1750.33" width="10" height="50" as="geometry" />
        </mxCell>
        <mxCell id="5WnQGbEfDsJ_Zrcz6-hq-438" value="" style="endArrow=none;dashed=1;html=1;dashPattern=1 3;strokeWidth=2;rounded=0;entryX=0.5;entryY=1;entryDx=0;entryDy=0;startArrow=none;" edge="1" parent="1" target="5WnQGbEfDsJ_Zrcz6-hq-437">
          <mxGeometry width="50" height="50" relative="1" as="geometry">
            <mxPoint x="2880" y="1840.3300000000004" as="sourcePoint" />
            <mxPoint x="2877.5" y="1760.33" as="targetPoint" />
          </mxGeometry>
        </mxCell>
      </root>
    </mxGraphModel>
  </diagram>
</mxfile>
